<svg xmlns="http://www.w3.org/2000/svg" version="1.1" height="600" width="960"><g></g><g transform="translate(480,300)scale(1,1)"><text style="font-size: 100px; opacity: 1; font-family: Impact; fill: rgb(107, 110, 207);" transform="translate(-76,79)rotate(59.000000175116455)skewX(0)scale(1.0000000015001866,1.0000000015001866)" text-anchor="middle">de</text><text style="font-size: 93px; opacity: 1; font-family: Impact; fill: rgb(156, 158, 222);" transform="translate(77,109)rotate(-55.999999544926965)scale(0.9999999746668561,0.9999999746668561)" text-anchor="middle">la</text><text style="font-size: 91px; opacity: 1; font-family: Impact; fill: rgb(99, 121, 57);" transform="translate(140,88)rotate(30.250000265107733)scale(1.0000000124078419,1.0000000124078419)" text-anchor="middle">el</text><text style="font-size: 87px; opacity: 1; font-family: Impact; fill: rgb(140, 162, 82);" transform="translate(68,25)rotate(-27.24999916406)skewX(-3.1805546222859126e-15)scale(1.0000000186060645,1.0000000186060645)" text-anchor="middle">que</text><text style="font-size: 81px; opacity: 1; font-family: Impact; fill: rgb(181, 207, 107);" transform="translate(-64,-35)rotate(59.00000017511647)scale(1.0000000015001866,1.0000000015001866)" text-anchor="middle">y</text><text style="font-size: 80px; opacity: 1; font-family: Impact; fill: rgb(206, 219, 156);" transform="translate(154,-47)rotate(-27.249999164060007)skewX(-3.1805546222859126e-15)scale(1.0000000186060645,1.0000000186060645)" text-anchor="middle">en</text><text style="font-size: 71px; opacity: 1; font-family: Impact; fill: rgb(140, 109, 49);" transform="translate(123,151)rotate(1.4999999762315532)skewX(1.98784666018391e-16)scale(1.0000000079134816,1.0000000079134816)" text-anchor="middle">un</text><text style="font-size: 69px; opacity: 1; font-family: Impact; fill: rgb(189, 158, 57);" transform="translate(9,-134)rotate(30.250000265107733)scale(1.0000000124078419,1.0000000124078419)" text-anchor="middle">Tornillo</text><text style="font-size: 67px; opacity: 1; font-family: Impact; fill: rgb(231, 186, 82);" transform="translate(244,98)rotate(-27.24999916406)skewX(-3.1805546222859126e-15)scale(1.0000000186060645,1.0000000186060645)" text-anchor="middle">del</text><text style="font-size: 65px; opacity: 1; font-family: Impact; fill: rgb(231, 203, 148);" transform="translate(180,-111)rotate(1.4999999762315568)skewX(1.98784666018391e-16)scale(1.0000000079134816,1.0000000079134816)" text-anchor="middle">las</text><text style="font-size: 65px; opacity: 1; font-family: Impact; fill: rgb(132, 60, 57);" transform="translate(180,14)rotate(1.4999999762315497)skewX(1.98784666018391e-16)scale(1.0000000079134816,1.0000000079134816)" text-anchor="middle">una</text><text style="font-size: 63px; opacity: 1; font-family: Impact; fill: rgb(173, 73, 74);" transform="translate(-110,-118)rotate(59.00000017511646)scale(1.0000000015001866,1.0000000015001866)" text-anchor="middle">sin</text><text style="font-size: 63px; opacity: 1; font-family: Impact; fill: rgb(214, 97, 107);" transform="translate(-100,140)rotate(30.250000265107733)skewX(0)scale(1.0000000124078419,1.0000000124078419)" text-anchor="middle">por</text><text style="font-size: 63px; opacity: 1; font-family: Impact; fill: rgb(231, 150, 156);" transform="translate(288,81)rotate(59.00000017511646)scale(1.0000000015001866,1.0000000015001866)" text-anchor="middle">es</text><text style="font-size: 60px; opacity: 1; font-family: Impact; fill: rgb(123, 65, 115);" transform="translate(-172,18)rotate(30.250000265107733)scale(1.0000000124078419,1.0000000124078419)" text-anchor="middle">los</text><text style="font-size: 60px; opacity: 1; font-family: Impact; fill: rgb(165, 81, 148);" transform="translate(-115,77)rotate(-27.249999164059997)skewX(-3.1805546222859126e-15)scale(1.0000000186060645,1.0000000186060645)" text-anchor="middle">lo</text><text style="font-size: 58px; opacity: 1; font-family: Impact; fill: rgb(206, 109, 189);" transform="translate(-111,-14)rotate(59.000000175116455)skewX(0)scale(1.0000000015001866,1.0000000015001866)" text-anchor="middle">nos</text><text style="font-size: 58px; opacity: 1; font-family: Impact; fill: rgb(222, 158, 214);" transform="translate(-161,-48)rotate(30.250000265107733)scale(1.0000000124078419,1.0000000124078419)" text-anchor="middle">al</text><text style="font-size: 58px; opacity: 1; font-family: Impact; fill: rgb(57, 59, 121);" transform="translate(233,-63)rotate(1.4999999762315532)skewX(1.9878466601839103e-16)scale(1.0000000079134816,1.0000000079134816)" text-anchor="middle">con</text><text style="font-size: 58px; opacity: 1; font-family: Impact; fill: rgb(82, 84, 163);" transform="translate(99,69)rotate(-27.24999916406)skewX(-3.1805546222859126e-15)scale(1.0000000186060645,1.0000000186060645)" text-anchor="middle">o</text><text style="font-size: 55px; opacity: 1; font-family: Impact; fill: rgb(107, 110, 207);" transform="translate(-11,173)rotate(-55.999999544926965)scale(0.9999999746668561,0.9999999746668561)" text-anchor="middle">fuego</text><text style="font-size: 55px; opacity: 1; font-family: Impact; fill: rgb(156, 158, 222);" transform="translate(82,191)rotate(30.25000026510773)skewX(0)scale(1.0000000124078419,1.0000000124078419)" text-anchor="middle">su</text><text style="font-size: 55px; opacity: 1; font-family: Impact; fill: rgb(99, 121, 57);" transform="translate(280,8)rotate(1.4999999762315532)skewX(1.9878466601839103e-16)scale(1.0000000079134816,1.0000000079134816)" text-anchor="middle">tura</text><text style="font-size: 51px; opacity: 1; font-family: Impact; fill: rgb(140, 162, 82);" transform="translate(181,152)rotate(30.25000026510773)scale(1.0000000124078419,1.0000000124078419)" text-anchor="middle">Se</text><text style="font-size: 47px; opacity: 1; font-family: Impact; fill: rgb(181, 207, 107);" transform="translate(-47,-91)rotate(59.00000017511646)scale(1.0000000015001866,1.0000000015001866)" text-anchor="middle">sí</text><text style="font-size: 47px; opacity: 1; font-family: Impact; fill: rgb(206, 219, 156);" transform="translate(-221,-22)rotate(1.4999999762315532)skewX(1.98784666018391e-16)scale(1.0000000079134816,1.0000000079134816)" text-anchor="middle">ser</text><text style="font-size: 47px; opacity: 1; font-family: Impact; fill: rgb(140, 109, 49);" transform="translate(-190,107)rotate(-27.249999164060007)skewX(-3.1805546222859126e-15)scale(1.0000000186060645,1.0000000186060645)" text-anchor="middle">decir</text><text style="font-size: 47px; opacity: 1; font-family: Impact; fill: rgb(189, 158, 57);" transform="translate(252,162)rotate(59.00000017511646)scale(1.0000000015001866,1.0000000015001866)" text-anchor="middle">quizá</text><text style="font-size: 42px; opacity: 1; font-family: Impact; fill: rgb(231, 186, 82);" transform="translate(143,-176)rotate(-55.999999544926965)skewX(0)scale(0.9999999746668561,0.9999999746668561)" text-anchor="middle">corre</text><text style="font-size: 42px; opacity: 1; font-family: Impact; fill: rgb(231, 203, 148);" transform="translate(308,147)rotate(30.250000265107733)scale(1.0000000124078419,1.0000000124078419)" text-anchor="middle">como</text><text style="font-size: 42px; opacity: 1; font-family: Impact; fill: rgb(132, 60, 57);" transform="translate(15,-78)rotate(59.00000017511647)skewX(0)scale(1.0000000015001866,1.0000000015001866)" text-anchor="middle">qué</text><text style="font-size: 42px; opacity: 1; font-family: Impact; fill: rgb(173, 73, 74);" transform="translate(31,193)rotate(59.00000017511647)skewX(0)scale(1.0000000015001866,1.0000000015001866)" text-anchor="middle">paz</text><text style="font-size: 35px; opacity: 1; font-family: Impact; fill: rgb(214, 97, 107);" transform="translate(323,-52)rotate(-27.24999916406)skewX(-3.1805546222859126e-15)scale(1.0000000186060645,1.0000000186060645)" text-anchor="middle">pero</text><text style="font-size: 35px; opacity: 1; font-family: Impact; fill: rgb(231, 150, 156);" transform="translate(362,13)rotate(30.25000026510773)scale(1.0000000124078419,1.0000000124078419)" text-anchor="middle">color</text><text style="font-size: 35px; opacity: 1; font-family: Impact; fill: rgb(123, 65, 115);" transform="translate(213,-175)rotate(59.00000017511646)scale(1.0000000015001866,1.0000000015001866)" text-anchor="middle">anochecer</text><text style="font-size: 35px; opacity: 1; font-family: Impact; fill: rgb(165, 81, 148);" transform="translate(-141,-97)rotate(1.4999999762315568)skewX(1.98784666018391e-16)scale(1.0000000079134816,1.0000000079134816)" text-anchor="middle">Así</text><text style="font-size: 35px; opacity: 1; font-family: Impact; fill: rgb(206, 109, 189);" transform="translate(-193,-103)rotate(-55.999999544926965)skewX(0)scale(0.9999999746668561,0.9999999746668561)" text-anchor="middle">nuestra</text><text style="font-size: 35px; opacity: 1; font-family: Impact; fill: rgb(222, 158, 214);" transform="translate(-74,-58)rotate(30.25000026510773)scale(1.0000000124078419,1.0000000124078419)" text-anchor="middle">si</text><text style="font-size: 35px; opacity: 1; font-family: Impact; fill: rgb(57, 59, 121);" transform="translate(-139,-183)rotate(-27.249999164060007)skewX(-3.1805546222859126e-15)scale(1.0000000186060645,1.0000000186060645)" text-anchor="middle">escritura</text><text style="font-size: 35px; opacity: 1; font-family: Impact; fill: rgb(82, 84, 163);" transform="translate(301,-154)rotate(-27.24999916406)skewX(-3.1805546222859126e-15)scale(1.0000000186060645,1.0000000186060645)" text-anchor="middle">entre</text><text style="font-size: 35px; opacity: 1; font-family: Impact; fill: rgb(107, 110, 207);" transform="translate(105,-187)rotate(-55.99999954492697)scale(0.9999999746668561,0.9999999746668561)" text-anchor="middle">otra</text><text style="font-size: 35px; opacity: 1; font-family: Impact; fill: rgb(156, 158, 222);" transform="translate(329,-113)rotate(-55.999999544926965)scale(0.9999999746668561,0.9999999746668561)" text-anchor="middle">todas</text><text style="font-size: 35px; opacity: 1; font-family: Impact; fill: rgb(99, 121, 57);" transform="translate(-159,-209)rotate(-27.249999164059997)skewX(-3.1805546222859126e-15)scale(1.0000000186060645,1.0000000186060645)" text-anchor="middle">elección</text><text style="font-size: 35px; opacity: 1; font-family: Impact; fill: rgb(140, 162, 82);" transform="translate(-206,31)rotate(30.25000026510773)skewX(0)scale(1.0000000124078419,1.0000000124078419)" text-anchor="middle">turas</text><text style="font-size: 35px; opacity: 1; font-family: Impact; fill: rgb(181, 207, 107);" transform="translate(50,-193)rotate(-27.249999164060007)skewX(-3.1805546222859126e-15)scale(1.0000000186060645,1.0000000186060645)" text-anchor="middle">era</text><text style="font-size: 35px; opacity: 1; font-family: Impact; fill: rgb(206, 219, 156);" transform="translate(157,183)rotate(1.4999999762315568)skewX(1.98784666018391e-16)scale(1.0000000079134816,1.0000000079134816)" text-anchor="middle">ojo</text><text style="font-size: 35px; opacity: 1; font-family: Impact; fill: rgb(140, 109, 49);" transform="translate(-258,28)rotate(59.00000017511646)scale(1.0000000015001866,1.0000000015001866)" text-anchor="middle">Gran</text><text style="font-size: 35px; opacity: 1; font-family: Impact; fill: rgb(189, 158, 57);" transform="translate(205,198)rotate(-27.24999916406)skewX(-3.1805546222859126e-15)scale(1.0000000186060645,1.0000000186060645)" text-anchor="middle">cada</text><text style="font-size: 26px; opacity: 1; font-family: Impact; fill: rgb(231, 186, 82);" transform="translate(-277,-93)rotate(30.250000265107733)scale(1.0000000124078419,1.0000000124078419)" text-anchor="middle">curará</text><text style="font-size: 26px; opacity: 1; font-family: Impact; fill: rgb(231, 203, 148);" transform="translate(-239,-152)rotate(59.00000017511646)scale(1.0000000015001866,1.0000000015001866)" text-anchor="middle">sordo</text><text style="font-size: 26px; opacity: 1; font-family: Impact; fill: rgb(132, 60, 57);" transform="translate(213,-37)rotate(30.25000026510773)scale(1.0000000124078419,1.0000000124078419)" text-anchor="middle">rue</text><text style="font-size: 26px; opacity: 1; font-family: Impact; fill: rgb(173, 73, 74);" transform="translate(-151,152)rotate(59.00000017511647)scale(1.0000000015001866,1.0000000015001866)" text-anchor="middle">Huchette</text><text style="font-size: 26px; opacity: 1; font-family: Impact; fill: rgb(214, 97, 107);" transform="translate(-26,-227)rotate(30.250000265107733)skewX(0)scale(1.0000000124078419,1.0000000124078419)" text-anchor="middle">saliendo</text><text style="font-size: 26px; opacity: 1; font-family: Impact; fill: rgb(231, 150, 156);" transform="translate(-266,-171)rotate(-55.999999544926965)scale(0.9999999746668561,0.9999999746668561)" text-anchor="middle">portales</text><text style="font-size: 26px; opacity: 1; font-family: Impact; fill: rgb(123, 65, 115);" transform="translate(85,-247)rotate(-27.24999916406)skewX(-3.1805546222859126e-15)scale(1.0000000186060645,1.0000000186060645)" text-anchor="middle">carcomidos</text><text style="font-size: 26px; opacity: 1; font-family: Impact; fill: rgb(165, 81, 148);" transform="translate(359,-94)rotate(1.4999999762315532)skewX(1.9878466601839103e-16)scale(1.0000000079134816,1.0000000079134816)" text-anchor="middle">cómo</text><text style="font-size: 26px; opacity: 1; font-family: Impact; fill: rgb(206, 109, 189);" transform="translate(-117,-166)rotate(-27.24999916406)skewX(-3.1805546222859126e-15)scale(1.0000000186060645,1.0000000186060645)" text-anchor="middle">para</text><text style="font-size: 26px; opacity: 1; font-family: Impact; fill: rgb(222, 158, 214);" transform="translate(-178,179)rotate(59.00000017511647)skewX(0)scale(1.0000000015001866,1.0000000015001866)" text-anchor="middle">quemadura</text><text style="font-size: 26px; opacity: 1; font-family: Impact; fill: rgb(57, 59, 121);" transform="translate(-277,59)rotate(59.000000175116455)skewX(0)scale(1.0000000015001866,1.0000000015001866)" text-anchor="middle">tiempo</text><text style="font-size: 26px; opacity: 1; font-family: Impact; fill: rgb(82, 84, 163);" transform="translate(-268,117)rotate(-55.999999544926965)skewX(0)scale(0.9999999746668561,0.9999999746668561)" text-anchor="middle">este</text><text style="font-size: 26px; opacity: 1; font-family: Impact; fill: rgb(107, 110, 207);" transform="translate(-38,-125)rotate(1.4999999762315532)skewX(1.98784666018391e-16)scale(1.0000000079134816,1.0000000079134816)" text-anchor="middle">lado</text><text style="font-size: 26px; opacity: 1; font-family: Impact; fill: rgb(156, 158, 222);" transform="translate(-307,90)rotate(1.4999999762315532)skewX(1.9878466601839103e-16)scale(1.0000000079134816,1.0000000079134816)" text-anchor="middle">hasta</text><text style="font-size: 26px; opacity: 1; font-family: Impact; fill: rgb(99, 121, 57);" transform="translate(-281,-66)rotate(30.250000265107733)scale(1.0000000124078419,1.0000000124078419)" text-anchor="middle">mejor</text><text style="font-size: 26px; opacity: 1; font-family: Impact; fill: rgb(140, 162, 82);" transform="translate(134,210)rotate(-27.24999916406)skewX(-3.1805546222859126e-15)scale(1.0000000186060645,1.0000000186060645)" text-anchor="middle">esto</text><text style="font-size: 26px; opacity: 1; font-family: Impact; fill: rgb(181, 207, 107);" transform="translate(364,-39)rotate(59.00000017511646)scale(1.0000000015001866,1.0000000015001866)" text-anchor="middle">más</text><text style="font-size: 26px; opacity: 1; font-family: Impact; fill: rgb(206, 219, 156);" transform="translate(314,216)rotate(-27.249999164060007)skewX(-3.1805546222859126e-15)scale(1.0000000186060645,1.0000000186060645)" text-anchor="middle">Costumbre</text><text style="font-size: 26px; opacity: 1; font-family: Impact; fill: rgb(140, 109, 49);" transform="translate(5,208)rotate(1.4999999762315532)skewX(1.98784666018391e-16)scale(1.0000000079134816,1.0000000079134816)" text-anchor="middle">vez</text><text style="font-size: 26px; opacity: 1; font-family: Impact; fill: rgb(189, 158, 57);" transform="translate(-323,-33)rotate(59.00000017511646)scale(1.0000000015001866,1.0000000015001866)" text-anchor="middle">literatura</text><text style="font-size: 26px; opacity: 1; font-family: Impact; fill: rgb(231, 186, 82);" transform="translate(85,-61)rotate(-55.99999954492697)scale(0.9999999746668561,0.9999999746668561)" text-anchor="middle">Yin</text><text style="font-size: 26px; opacity: 1; font-family: Impact; fill: rgb(231, 203, 148);" transform="translate(-323,40)rotate(59.000000175116455)skewX(0)scale(1.0000000015001866,1.0000000015001866)" text-anchor="middle">Yang</text><text style="font-size: 26px; opacity: 1; font-family: Impact; fill: rgb(132, 60, 57);" transform="translate(-374,-7)rotate(1.4999999762315532)skewX(1.98784666018391e-16)scale(1.0000000079134816,1.0000000079134816)" text-anchor="middle">palabras</text><text style="font-size: 26px; opacity: 1; font-family: Impact; fill: rgb(173, 73, 74);" transform="translate(295,-211)rotate(-55.999999544926965)scale(0.9999999746668561,0.9999999746668561)" text-anchor="middle">dialéctica</text><text style="font-size: 26px; opacity: 1; font-family: Impact; fill: rgb(214, 97, 107);" transform="translate(-114,-261)rotate(1.4999999762315497)skewX(1.98784666018391e-16)scale(1.0000000079134816,1.0000000079134816)" text-anchor="middle">hecho</text><text style="font-size: 26px; opacity: 1; font-family: Impact; fill: rgb(231, 150, 156);" transform="translate(-357,37)rotate(-55.99999954492697)scale(0.9999999746668561,0.9999999746668561)" text-anchor="middle">sobre</text><text style="font-size: 26px; opacity: 1; font-family: Impact; fill: rgb(123, 65, 115);" transform="translate(-378,-53)rotate(30.250000265107733)skewX(0)scale(1.0000000124078419,1.0000000124078419)" text-anchor="middle">posible</text><text style="font-size: 26px; opacity: 1; font-family: Impact; fill: rgb(165, 81, 148);" transform="translate(-246,158)rotate(1.4999999762315532)skewX(1.98784666018391e-16)scale(1.0000000079134816,1.0000000079134816)" text-anchor="middle">puede</text><text style="font-size: 26px; opacity: 1; font-family: Impact; fill: rgb(206, 109, 189);" transform="translate(159,231)rotate(59.00000017511646)scale(1.0000000015001866,1.0000000015001866)" text-anchor="middle">cosa</text><text style="font-size: 26px; opacity: 1; font-family: Impact; fill: rgb(222, 158, 214);" transform="translate(-330,-158)rotate(-27.24999916406)skewX(-3.1805546222859126e-15)scale(1.0000000186060645,1.0000000186060645)" text-anchor="middle">¿cuántos</text><text style="font-size: 26px; opacity: 1; font-family: Impact; fill: rgb(57, 59, 121);" transform="translate(-359,-108)rotate(1.4999999762315532)skewX(1.98784666018391e-16)scale(1.0000000079134816,1.0000000079134816)" text-anchor="middle">verdad</text><text style="font-size: 26px; opacity: 1; font-family: Impact; fill: rgb(82, 84, 163);" transform="translate(385,-60)rotate(30.250000265107733)scale(1.0000000124078419,1.0000000124078419)" text-anchor="middle">tiene</text><text style="font-size: 26px; opacity: 1; font-family: Impact; fill: rgb(107, 110, 207);" transform="translate(-236,200)rotate(-27.24999916406)skewX(-3.1805546222859126e-15)scale(1.0000000186060645,1.0000000186060645)" text-anchor="middle">invención</text><text style="font-size: 26px; opacity: 1; font-family: Impact; fill: rgb(156, 158, 222);" transform="translate(-102,219)rotate(-55.999999544926965)scale(0.9999999746668561,0.9999999746668561)" text-anchor="middle">mundo</text><text style="font-size: 26px; opacity: 1; font-family: Impact; fill: rgb(99, 121, 57);" transform="translate(-289,-27)rotate(59.00000017511646)scale(1.0000000015001866,1.0000000015001866)" text-anchor="middle">Uno</text><text style="font-size: 26px; opacity: 1; font-family: Impact; fill: rgb(140, 162, 82);" transform="translate(-2,246)rotate(30.250000265107733)skewX(0)scale(1.0000000124078419,1.0000000124078419)" text-anchor="middle">Morelli</text><text style="font-size: 26px; opacity: 1; font-family: Impact; fill: rgb(181, 207, 107);" transform="translate(-344,132)rotate(59.00000017511647)scale(1.0000000015001866,1.0000000015001866)" text-anchor="middle">napolitano</text><text style="font-size: 26px; opacity: 1; font-family: Impact; fill: rgb(206, 219, 156);" transform="translate(-255,-114)rotate(59.00000017511646)scale(1.0000000015001866,1.0000000015001866)" text-anchor="middle">fue</text><text style="font-size: 26px; opacity: 1; font-family: Impact; fill: rgb(140, 109, 49);" transform="translate(39,-258)rotate(-27.249999164060007)skewX(-3.1805546222859126e-15)scale(1.0000000186060645,1.0000000186060645)" text-anchor="middle">vecinos</text><text style="font-size: 26px; opacity: 1; font-family: Impact; fill: rgb(189, 158, 57);" transform="translate(376,136)rotate(1.4999999762315497)skewX(1.98784666018391e-16)scale(1.0000000079134816,1.0000000079134816)" text-anchor="middle">Nadie</text><text style="font-size: 26px; opacity: 1; font-family: Impact; fill: rgb(231, 186, 82);" transform="translate(85,231)rotate(-55.99999954492697)scale(0.9999999746668561,0.9999999746668561)" text-anchor="middle">saca</text><text style="font-size: 26px; opacity: 1; font-family: Impact; fill: rgb(231, 203, 148);" transform="translate(-206,-222)rotate(-27.249999164059997)skewX(-3.1805546222859126e-15)scale(1.0000000186060645,1.0000000186060645)" text-anchor="middle">mira</text><text style="font-size: 26px; opacity: 1; font-family: Impact; fill: rgb(132, 60, 57);" transform="translate(-384,154)rotate(30.25000026510773)skewX(0)scale(1.0000000124078419,1.0000000124078419)" text-anchor="middle">guardarlo</text><text style="font-size: 26px; opacity: 1; font-family: Impact; fill: rgb(173, 73, 74);" transform="translate(230,215)rotate(-27.24999916406)skewX(-3.1805546222859126e-15)scale(1.0000000186060645,1.0000000186060645)" text-anchor="middle">algo</text><text style="font-size: 26px; opacity: 1; font-family: Impact; fill: rgb(214, 97, 107);" transform="translate(-211,68)rotate(-27.249999164060007)skewX(-3.1805546222859126e-15)scale(1.0000000186060645,1.0000000186060645)" text-anchor="middle">auto</text><text style="font-size: 26px; opacity: 1; font-family: Impact; fill: rgb(231, 150, 156);" transform="translate(-409,68)rotate(59.00000017511647)scale(1.0000000015001866,1.0000000015001866)" text-anchor="middle">juguete</text><text style="font-size: 26px; opacity: 1; font-family: Impact; fill: rgb(123, 65, 115);" transform="translate(141,-240)rotate(-55.99999954492697)scale(0.9999999746668561,0.9999999746668561)" text-anchor="middle">vino</text><text style="font-size: 26px; opacity: 1; font-family: Impact; fill: rgb(165, 81, 148);" transform="translate(389,-156)rotate(-55.999999544926965)skewX(0)scale(0.9999999746668561,0.9999999746668561)" text-anchor="middle">ardemos</text><text style="font-size: 26px; opacity: 1; font-family: Impact; fill: rgb(206, 109, 189);" transform="translate(415,-75)rotate(59.000000175116455)skewX(0)scale(1.0000000015001866,1.0000000015001866)" text-anchor="middle">incurables</text><text style="font-size: 26px; opacity: 1; font-family: Impact; fill: rgb(222, 158, 214);" transform="translate(169,-162)rotate(1.4999999762315532)skewX(1.98784666018391e-16)scale(1.0000000079134816,1.0000000079134816)" text-anchor="middle">él</text><text style="font-size: 26px; opacity: 1; font-family: Impact; fill: rgb(57, 59, 121);" transform="translate(-36,0)rotate(1.4999999762315532)skewX(1.9878466601839103e-16)scale(1.0000000079134816,1.0000000079134816)" text-anchor="middle">día</text><text style="font-size: 26px; opacity: 1; font-family: Impact; fill: rgb(82, 84, 163);" transform="translate(120,256)rotate(-27.249999164059997)skewX(-3.1805546222859126e-15)scale(1.0000000186060645,1.0000000186060645)" text-anchor="middle">dentro</text><text style="font-size: 10px; opacity: 1; font-family: Impact; fill: rgb(107, 110, 207);" transform="translate(56,-45)rotate(1.4999999762315532)skewX(1.98784666018391e-16)scale(1.0000000079134816,1.0000000079134816)" text-anchor="middle">quién</text><text style="font-size: 10px; opacity: 1; font-family: Impact; fill: rgb(156, 158, 222);" transform="translate(-138,-27)rotate(-55.999999544926965)scale(0.9999999746668561,0.9999999746668561)" text-anchor="middle">parvos</text><text style="font-size: 10px; opacity: 1; font-family: Impact; fill: rgb(99, 121, 57);" transform="translate(-156,-137)rotate(-55.999999544926965)scale(0.9999999746668561,0.9999999746668561)" text-anchor="middle">zaguanes</text><text style="font-size: 10px; opacity: 1; font-family: Impact; fill: rgb(140, 162, 82);" transform="translate(-182,131)rotate(59.00000017511647)skewX(0)scale(1.0000000015001866,1.0000000015001866)" text-anchor="middle">imagen</text><text style="font-size: 10px; opacity: 1; font-family: Impact; fill: rgb(181, 207, 107);" transform="translate(-97,-72)rotate(30.250000265107733)scale(1.0000000124078419,1.0000000124078419)" text-anchor="middle">lame</text><text style="font-size: 10px; opacity: 1; font-family: Impact; fill: rgb(206, 219, 156);" transform="translate(-365,-92)rotate(30.250000265107733)scale(1.0000000124078419,1.0000000124078419)" text-anchor="middle">piedras</text><text style="font-size: 10px; opacity: 1; font-family: Impact; fill: rgb(140, 109, 49);" transform="translate(-110,16)rotate(-55.999999544926965)skewX(0)scale(0.9999999746668561,0.9999999746668561)" text-anchor="middle">acecha</text><text style="font-size: 10px; opacity: 1; font-family: Impact; fill: rgb(189, 158, 57);" transform="translate(-91,78)rotate(59.000000175116455)skewX(0)scale(1.0000000015001866,1.0000000015001866)" text-anchor="middle">vanos</text><text style="font-size: 10px; opacity: 1; font-family: Impact; fill: rgb(231, 186, 82);" transform="translate(86,-226)rotate(1.4999999762315568)skewX(1.98784666018391e-16)scale(1.0000000079134816,1.0000000079134816)" text-anchor="middle">puertas</text><text style="font-size: 10px; opacity: 1; font-family: Impact; fill: rgb(231, 203, 148);" transform="translate(-2,58)rotate(59.000000175116455)skewX(0)scale(1.0000000015001866,1.0000000015001866)" text-anchor="middle">haremos</text><text style="font-size: 10px; opacity: 1; font-family: Impact; fill: rgb(132, 60, 57);" transform="translate(25,-31)rotate(-27.24999916406)skewX(-3.1805546222859126e-15)scale(1.0000000186060645,1.0000000186060645)" text-anchor="middle">lavarnos</text><text style="font-size: 10px; opacity: 1; font-family: Impact; fill: rgb(173, 73, 74);" transform="translate(-125,-8)rotate(30.250000265107733)scale(1.0000000124078419,1.0000000124078419)" text-anchor="middle">dulce</text><text style="font-size: 10px; opacity: 1; font-family: Impact; fill: rgb(214, 97, 107);" transform="translate(66,148)rotate(-27.249999164059997)skewX(-3.1805546222859126e-15)scale(1.0000000186060645,1.0000000186060645)" text-anchor="middle">prosigue</text><text style="font-size: 10px; opacity: 1; font-family: Impact; fill: rgb(231, 150, 156);" transform="translate(-119,154)rotate(59.00000017511646)scale(1.0000000015001866,1.0000000015001866)" text-anchor="middle">aposenta</text><text style="font-size: 10px; opacity: 1; font-family: Impact; fill: rgb(123, 65, 115);" transform="translate(-43,-149)rotate(1.4999999762315532)skewX(1.98784666018391e-16)scale(1.0000000079134816,1.0000000079134816)" text-anchor="middle">durar</text><text style="font-size: 10px; opacity: 1; font-family: Impact; fill: rgb(165, 81, 148);" transform="translate(105,98)rotate(1.4999999762315568)skewX(1.98784666018391e-16)scale(1.0000000079134816,1.0000000079134816)" text-anchor="middle">aliada</text><text style="font-size: 10px; opacity: 1; font-family: Impact; fill: rgb(206, 109, 189);" transform="translate(243,223)rotate(-27.249999164059997)skewX(-3.1805546222859126e-15)scale(1.0000000186060645,1.0000000186060645)" text-anchor="middle">recuerdo</text><text style="font-size: 10px; opacity: 1; font-family: Impact; fill: rgb(222, 158, 214);" transform="translate(231,30)rotate(-27.24999916406)skewX(-3.1805546222859126e-15)scale(1.0000000186060645,1.0000000186060645)" text-anchor="middle">sustancias</text><text style="font-size: 10px; opacity: 1; font-family: Impact; fill: rgb(57, 59, 121);" transform="translate(-156,165)rotate(59.000000175116455)skewX(0)scale(1.0000000015001866,1.0000000015001866)" text-anchor="middle">pegajosas</text><text style="font-size: 10px; opacity: 1; font-family: Impact; fill: rgb(82, 84, 163);" transform="translate(-81,174)rotate(1.4999999762315568)skewX(1.98784666018391e-16)scale(1.0000000079134816,1.0000000079134816)" text-anchor="middle">retienen</text><text style="font-size: 10px; opacity: 1; font-family: Impact; fill: rgb(107, 110, 207);" transform="translate(122,37)rotate(-55.999999544926965)skewX(0)scale(0.9999999746668561,0.9999999746668561)" text-anchor="middle">arderá</text><text style="font-size: 10px; opacity: 1; font-family: Impact; fill: rgb(156, 158, 222);" transform="translate(-183,-80)rotate(-55.999999544926965)scale(0.9999999746668561,0.9999999746668561)" text-anchor="middle">dulcemente</text><text style="font-size: 10px; opacity: 1; font-family: Impact; fill: rgb(99, 121, 57);" transform="translate(292,31)rotate(-27.249999164059997)skewX(-3.1805546222859126e-15)scale(1.0000000186060645,1.0000000186060645)" text-anchor="middle">calcinamos</text><text style="font-size: 10px; opacity: 1; font-family: Impact; fill: rgb(140, 162, 82);" transform="translate(-333,50)rotate(59.00000017511646)scale(1.0000000015001866,1.0000000015001866)" text-anchor="middle">Entonces</text><text style="font-size: 10px; opacity: 1; font-family: Impact; fill: rgb(181, 207, 107);" transform="translate(251,-40)rotate(30.25000026510773)skewX(0)scale(1.0000000124078419,1.0000000124078419)" text-anchor="middle">pactar</text><text style="font-size: 10px; opacity: 1; font-family: Impact; fill: rgb(206, 219, 156);" transform="translate(34,143)rotate(-27.24999916406)skewX(-3.1805546222859126e-15)scale(1.0000000186060645,1.0000000186060645)" text-anchor="middle">gatos</text><text style="font-size: 10px; opacity: 1; font-family: Impact; fill: rgb(140, 109, 49);" transform="translate(126,-119)rotate(59.00000017511646)scale(1.0000000015001866,1.0000000015001866)" text-anchor="middle">musgos</text><text style="font-size: 10px; opacity: 1; font-family: Impact; fill: rgb(189, 158, 57);" transform="translate(-259,-144)rotate(1.4999999762315532)skewX(1.98784666018391e-16)scale(1.0000000079134816,1.0000000079134816)" text-anchor="middle">trabar</text><text style="font-size: 10px; opacity: 1; font-family: Impact; fill: rgb(231, 186, 82);" transform="translate(197,-175)rotate(59.00000017511647)skewX(0)scale(1.0000000015001866,1.0000000015001866)" text-anchor="middle">amistad</text><text style="font-size: 10px; opacity: 1; font-family: Impact; fill: rgb(231, 203, 148);" transform="translate(237,168)rotate(59.00000017511647)skewX(0)scale(1.0000000015001866,1.0000000015001866)" text-anchor="middle">inmediata</text><text style="font-size: 10px; opacity: 1; font-family: Impact; fill: rgb(132, 60, 57);" transform="translate(-300,115)rotate(-55.999999544926965)skewX(0)scale(0.9999999746668561,0.9999999746668561)" text-anchor="middle">porteras</text><text style="font-size: 10px; opacity: 1; font-family: Impact; fill: rgb(173, 73, 74);" transform="translate(-350,54)rotate(-55.99999954492697)scale(0.9999999746668561,0.9999999746668561)" text-anchor="middle">roncas</text><text style="font-size: 10px; opacity: 1; font-family: Impact; fill: rgb(214, 97, 107);" transform="translate(104,20)rotate(1.4999999762315532)skewX(1.98784666018391e-16)scale(1.0000000079134816,1.0000000079134816)" text-anchor="middle">voces</text><text style="font-size: 10px; opacity: 1; font-family: Impact; fill: rgb(231, 150, 156);" transform="translate(-404,-96)rotate(1.4999999762315568)skewX(1.98784666018391e-16)scale(1.0000000079134816,1.0000000079134816)" text-anchor="middle">criaturas</text><text style="font-size: 10px; opacity: 1; font-family: Impact; fill: rgb(123, 65, 115);" transform="translate(205,244)rotate(-55.99999954492697)scale(0.9999999746668561,0.9999999746668561)" text-anchor="middle">pálidas</text><text style="font-size: 10px; opacity: 1; font-family: Impact; fill: rgb(165, 81, 148);" transform="translate(247,-222)rotate(1.4999999762315532)skewX(1.9878466601839103e-16)scale(1.0000000079134816,1.0000000079134816)" text-anchor="middle">sufrientes</text><text style="font-size: 10px; opacity: 1; font-family: Impact; fill: rgb(206, 109, 189);" transform="translate(-55,-272)rotate(-27.249999164060007)skewX(-3.1805546222859126e-15)scale(1.0000000186060645,1.0000000186060645)" text-anchor="middle">acechan</text><text style="font-size: 10px; opacity: 1; font-family: Impact; fill: rgb(222, 158, 214);" transform="translate(-400,18)rotate(30.250000265107733)skewX(0)scale(1.0000000124078419,1.0000000124078419)" text-anchor="middle">ventanas</text><text style="font-size: 10px; opacity: 1; font-family: Impact; fill: rgb(57, 59, 121);" transform="translate(-317,-73)rotate(59.00000017511646)scale(1.0000000015001866,1.0000000015001866)" text-anchor="middle">jugando</text><text style="font-size: 10px; opacity: 1; font-family: Impact; fill: rgb(82, 84, 163);" transform="translate(184,-49)rotate(-27.24999916406)skewX(-3.1805546222859126e-15)scale(1.0000000186060645,1.0000000186060645)" text-anchor="middle">rama</text><text style="font-size: 10px; opacity: 1; font-family: Impact; fill: rgb(107, 110, 207);" transform="translate(197,227)rotate(-55.999999544926965)scale(0.9999999746668561,0.9999999746668561)" text-anchor="middle">seca</text><text style="font-size: 10px; opacity: 1; font-family: Impact; fill: rgb(156, 158, 222);" transform="translate(-92,-179)rotate(59.000000175116455)skewX(0)scale(1.0000000015001866,1.0000000015001866)" text-anchor="middle">Ardiendo</text><text style="font-size: 10px; opacity: 1; font-family: Impact; fill: rgb(99, 121, 57);" transform="translate(284,-116)rotate(-55.999999544926965)scale(0.9999999746668561,0.9999999746668561)" text-anchor="middle">tregua</text><text style="font-size: 10px; opacity: 1; font-family: Impact; fill: rgb(140, 162, 82);" transform="translate(-298,161)rotate(59.00000017511646)scale(1.0000000015001866,1.0000000015001866)" text-anchor="middle">soportando</text><text style="font-size: 10px; opacity: 1; font-family: Impact; fill: rgb(181, 207, 107);" transform="translate(-315,-134)rotate(30.250000265107733)scale(1.0000000124078419,1.0000000124078419)" text-anchor="middle">central</text><text style="font-size: 10px; opacity: 1; font-family: Impact; fill: rgb(206, 219, 156);" transform="translate(340,-44)rotate(-27.24999916406)skewX(-3.1805546222859126e-15)scale(1.0000000186060645,1.0000000186060645)" text-anchor="middle">avanza</text><text style="font-size: 10px; opacity: 1; font-family: Impact; fill: rgb(140, 109, 49);" transform="translate(-77,231)rotate(59.00000017511646)scale(1.0000000015001866,1.0000000015001866)" text-anchor="middle">madurez</text><text style="font-size: 10px; opacity: 1; font-family: Impact; fill: rgb(189, 158, 57);" transform="translate(378,105)rotate(1.4999999762315497)skewX(1.98784666018391e-16)scale(1.0000000079134816,1.0000000079134816)" text-anchor="middle">paulatina</text><text style="font-size: 10px; opacity: 1; font-family: Impact; fill: rgb(231, 186, 82);" transform="translate(58,-184)rotate(-55.999999544926965)scale(0.9999999746668561,0.9999999746668561)" text-anchor="middle">fruto</text><text style="font-size: 10px; opacity: 1; font-family: Impact; fill: rgb(231, 203, 148);" transform="translate(-137,-137)rotate(-55.999999544926965)skewX(0)scale(0.9999999746668561,0.9999999746668561)" text-anchor="middle">pulso</text><text style="font-size: 10px; opacity: 1; font-family: Impact; fill: rgb(132, 60, 57);" transform="translate(173,-200)rotate(-55.99999954492697)scale(0.9999999746668561,0.9999999746668561)" text-anchor="middle">hoguera</text><text style="font-size: 10px; opacity: 1; font-family: Impact; fill: rgb(173, 73, 74);" transform="translate(213,127)rotate(30.250000265107733)scale(1.0000000124078419,1.0000000124078419)" text-anchor="middle">esta</text><text style="font-size: 10px; opacity: 1; font-family: Impact; fill: rgb(214, 97, 107);" transform="translate(56,-88)rotate(30.250000265107733)scale(1.0000000124078419,1.0000000124078419)" text-anchor="middle">maraña</text><text style="font-size: 10px; opacity: 1; font-family: Impact; fill: rgb(231, 150, 156);" transform="translate(-87,-234)rotate(59.00000017511647)skewX(0)scale(1.0000000015001866,1.0000000015001866)" text-anchor="middle">piedra</text><text style="font-size: 10px; opacity: 1; font-family: Impact; fill: rgb(123, 65, 115);" transform="translate(346,32)rotate(1.4999999762315532)skewX(1.9878466601839103e-16)scale(1.0000000079134816,1.0000000079134816)" text-anchor="middle">interminable</text><text style="font-size: 10px; opacity: 1; font-family: Impact; fill: rgb(165, 81, 148);" transform="translate(169,-34)rotate(1.4999999762315568)skewX(1.98784666018391e-16)scale(1.0000000079134816,1.0000000079134816)" text-anchor="middle">caminar</text><text style="font-size: 10px; opacity: 1; font-family: Impact; fill: rgb(206, 109, 189);" transform="translate(-166,-38)rotate(30.25000026510773)scale(1.0000000124078419,1.0000000124078419)" text-anchor="middle">noches</text><text style="font-size: 10px; opacity: 1; font-family: Impact; fill: rgb(222, 158, 214);" transform="translate(173,33)rotate(30.250000265107733)skewX(0)scale(1.0000000124078419,1.0000000124078419)" text-anchor="middle">vida</text><text style="font-size: 10px; opacity: 1; font-family: Impact; fill: rgb(57, 59, 121);" transform="translate(-260,-223)rotate(-27.24999916406)skewX(-3.1805546222859126e-15)scale(1.0000000186060645,1.0000000186060645)" text-anchor="middle">obediencia</text><text style="font-size: 10px; opacity: 1; font-family: Impact; fill: rgb(82, 84, 163);" transform="translate(-377,-38)rotate(30.25000026510773)skewX(0)scale(1.0000000124078419,1.0000000124078419)" text-anchor="middle">sangre</text><text style="font-size: 10px; opacity: 1; font-family: Impact; fill: rgb(107, 110, 207);" transform="translate(1,-113)rotate(-27.24999916406)skewX(-3.1805546222859126e-15)scale(1.0000000186060645,1.0000000186060645)" text-anchor="middle">circuito</text><text style="font-size: 10px; opacity: 1; font-family: Impact; fill: rgb(156, 158, 222);" transform="translate(102,-236)rotate(1.4999999762315497)skewX(1.98784666018391e-16)scale(1.0000000079134816,1.0000000079134816)" text-anchor="middle">ciego</text><text style="font-size: 10px; opacity: 1; font-family: Impact; fill: rgb(99, 121, 57);" transform="translate(153,262)rotate(-55.999999544926965)skewX(0)scale(0.9999999746668561,0.9999999746668561)" text-anchor="middle">Cuántas</text><text style="font-size: 10px; opacity: 1; font-family: Impact; fill: rgb(140, 162, 82);" transform="translate(223,49)rotate(-27.24999916406)skewX(-3.1805546222859126e-15)scale(1.0000000186060645,1.0000000186060645)" text-anchor="middle">veces</text><text style="font-size: 10px; opacity: 1; font-family: Impact; fill: rgb(181, 207, 107);" transform="translate(-5,-263)rotate(-27.249999164060007)skewX(-3.1805546222859126e-15)scale(1.0000000186060645,1.0000000186060645)" text-anchor="middle">pregunto</text><text style="font-size: 10px; opacity: 1; font-family: Impact; fill: rgb(206, 219, 156);" transform="translate(311,-194)rotate(-27.24999916406)skewX(-3.1805546222859126e-15)scale(1.0000000186060645,1.0000000186060645)" text-anchor="middle">corremos</text><text style="font-size: 10px; opacity: 1; font-family: Impact; fill: rgb(140, 109, 49);" transform="translate(-314,-197)rotate(-27.249999164059997)skewX(-3.1805546222859126e-15)scale(1.0000000186060645,1.0000000186060645)" text-anchor="middle">engaño</text><text style="font-size: 10px; opacity: 1; font-family: Impact; fill: rgb(189, 158, 57);" transform="translate(-347,-186)rotate(-55.999999544926965)skewX(0)scale(0.9999999746668561,0.9999999746668561)" text-anchor="middle">ecuaciones</text><text style="font-size: 10px; opacity: 1; font-family: Impact; fill: rgb(231, 186, 82);" transform="translate(375,46)rotate(1.4999999762315497)skewX(1.98784666018391e-16)scale(1.0000000079134816,1.0000000079134816)" text-anchor="middle">infalibles</text><text style="font-size: 10px; opacity: 1; font-family: Impact; fill: rgb(231, 203, 148);" transform="translate(340,-176)rotate(59.00000017511646)scale(1.0000000015001866,1.0000000015001866)" text-anchor="middle">máquinas</text><text style="font-size: 10px; opacity: 1; font-family: Impact; fill: rgb(132, 60, 57);" transform="translate(427,-8)rotate(1.4999999762315532)skewX(1.98784666018391e-16)scale(1.0000000079134816,1.0000000079134816)" text-anchor="middle">conformismos</text><text style="font-size: 10px; opacity: 1; font-family: Impact; fill: rgb(173, 73, 74);" transform="translate(-424,-48)rotate(1.4999999762315568)skewX(1.98784666018391e-16)scale(1.0000000079134816,1.0000000079134816)" text-anchor="middle">preguntarse</text><text style="font-size: 10px; opacity: 1; font-family: Impact; fill: rgb(214, 97, 107);" transform="translate(164,-267)rotate(59.00000017511646)scale(1.0000000015001866,1.0000000015001866)" text-anchor="middle">sabremos</text><text style="font-size: 10px; opacity: 1; font-family: Impact; fill: rgb(231, 150, 156);" transform="translate(-214,201)rotate(-27.24999916406)skewX(-3.1805546222859126e-15)scale(1.0000000186060645,1.0000000186060645)" text-anchor="middle">encontrar</text><text style="font-size: 10px; opacity: 1; font-family: Impact; fill: rgb(123, 65, 115);" transform="translate(-10,-17)rotate(1.4999999762315497)skewX(1.98784666018391e-16)scale(1.0000000079134816,1.0000000079134816)" text-anchor="middle">otro</text><text style="font-size: 10px; opacity: 1; font-family: Impact; fill: rgb(165, 81, 148);" transform="translate(117,88)rotate(30.250000265107733)skewX(0)scale(1.0000000124078419,1.0000000124078419)" text-anchor="middle">vale</text><text style="font-size: 10px; opacity: 1; font-family: Impact; fill: rgb(206, 109, 189);" transform="translate(231,-249)rotate(-55.999999544926965)skewX(0)scale(0.9999999746668561,0.9999999746668561)" text-anchor="middle">dejarse</text><text style="font-size: 10px; opacity: 1; font-family: Impact; fill: rgb(222, 158, 214);" transform="translate(351,-30)rotate(30.250000265107733)scale(1.0000000124078419,1.0000000124078419)" text-anchor="middle">llevar</text><text style="font-size: 10px; opacity: 1; font-family: Impact; fill: rgb(57, 59, 121);" transform="translate(-307,-216)rotate(30.250000265107733)scale(1.0000000124078419,1.0000000124078419)" text-anchor="middle">alegre</text><text style="font-size: 10px; opacity: 1; font-family: Impact; fill: rgb(82, 84, 163);" transform="translate(-381,127)rotate(30.25000026510773)scale(1.0000000124078419,1.0000000124078419)" text-anchor="middle">cibernética</text><text style="font-size: 10px; opacity: 1; font-family: Impact; fill: rgb(107, 110, 207);" transform="translate(198,27)rotate(30.250000265107733)skewX(0)scale(1.0000000124078419,1.0000000124078419)" text-anchor="middle">¿no</text><text style="font-size: 10px; opacity: 1; font-family: Impact; fill: rgb(156, 158, 222);" transform="translate(-97,30)rotate(-55.99999954492697)scale(0.9999999746668561,0.9999999746668561)" text-anchor="middle">será</text><text style="font-size: 10px; opacity: 1; font-family: Impact; fill: rgb(99, 121, 57);" transform="translate(-427,-24)rotate(-55.99999954492697)scale(0.9999999746668561,0.9999999746668561)" text-anchor="middle">Rebelión</text><text style="font-size: 10px; opacity: 1; font-family: Impact; fill: rgb(140, 162, 82);" transform="translate(-424,78)rotate(59.00000017511646)scale(1.0000000015001866,1.0000000015001866)" text-anchor="middle">conformismo</text><text style="font-size: 10px; opacity: 1; font-family: Impact; fill: rgb(181, 207, 107);" transform="translate(375,72)rotate(30.25000026510773)scale(1.0000000124078419,1.0000000124078419)" text-anchor="middle">angustia</text><text style="font-size: 10px; opacity: 1; font-family: Impact; fill: rgb(206, 219, 156);" transform="translate(-369,-174)rotate(-55.999999544926965)skewX(0)scale(0.9999999746668561,0.9999999746668561)" text-anchor="middle">alimentos</text><text style="font-size: 10px; opacity: 1; font-family: Impact; fill: rgb(140, 109, 49);" transform="translate(407,67)rotate(30.250000265107733)scale(1.0000000124078419,1.0000000124078419)" text-anchor="middle">terrestres</text><text style="font-size: 10px; opacity: 1; font-family: Impact; fill: rgb(189, 158, 57);" transform="translate(-184,-253)rotate(30.25000026510773)skewX(0)scale(1.0000000124078419,1.0000000124078419)" text-anchor="middle">dicotomías</text><text style="font-size: 10px; opacity: 1; font-family: Impact; fill: rgb(231, 186, 82);" transform="translate(-34,246)rotate(30.25000026510773)skewX(0)scale(1.0000000124078419,1.0000000124078419)" text-anchor="middle">contemplación</text><text style="font-size: 10px; opacity: 1; font-family: Impact; fill: rgb(231, 203, 148);" transform="translate(-438,-77)rotate(59.000000175116455)skewX(0)scale(1.0000000015001866,1.0000000015001866)" text-anchor="middle">Tatigkeit</text><text style="font-size: 10px; opacity: 1; font-family: Impact; fill: rgb(132, 60, 57);" transform="translate(27,224)rotate(1.4999999762315532)skewX(1.9878466601839103e-16)scale(1.0000000079134816,1.0000000079134816)" text-anchor="middle">avena</text><text style="font-size: 10px; opacity: 1; font-family: Impact; fill: rgb(173, 73, 74);" transform="translate(193,-263)rotate(59.000000175116455)skewX(0)scale(1.0000000015001866,1.0000000015001866)" text-anchor="middle">arrollada</text><text style="font-size: 10px; opacity: 1; font-family: Impact; fill: rgb(214, 97, 107);" transform="translate(-258,171)rotate(1.4999999762315532)skewX(1.98784666018391e-16)scale(1.0000000079134816,1.0000000079134816)" text-anchor="middle">perdices</text><text style="font-size: 10px; opacity: 1; font-family: Impact; fill: rgb(231, 150, 156);" transform="translate(-316,194)rotate(1.4999999762315532)skewX(1.98784666018391e-16)scale(1.0000000079134816,1.0000000079134816)" text-anchor="middle">faisandées</text><text style="font-size: 10px; opacity: 1; font-family: Impact; fill: rgb(123, 65, 115);" transform="translate(309,171)rotate(30.250000265107733)scale(1.0000000124078419,1.0000000124078419)" text-anchor="middle">Lascaux</text><text style="font-size: 10px; opacity: 1; font-family: Impact; fill: rgb(165, 81, 148);" transform="translate(368,-188)rotate(-27.24999916406)skewX(-3.1805546222859126e-15)scale(1.0000000186060645,1.0000000186060645)" text-anchor="middle">Mathieu</text><text style="font-size: 10px; opacity: 1; font-family: Impact; fill: rgb(206, 109, 189);" transform="translate(264,-248)rotate(-55.999999544926965)scale(0.9999999746668561,0.9999999746668561)" text-anchor="middle">hamaca</text><text style="font-size: 10px; opacity: 1; font-family: Impact; fill: rgb(222, 158, 214);" transform="translate(273,21)rotate(1.4999999762315532)skewX(1.9878466601839103e-16)scale(1.0000000079134816,1.0000000079134816)" text-anchor="middle">bolsillo</text><text style="font-size: 10px; opacity: 1; font-family: Impact; fill: rgb(57, 59, 121);" transform="translate(409,94)rotate(59.000000175116455)skewX(0)scale(1.0000000015001866,1.0000000015001866)" text-anchor="middle">tormentas</text><text style="font-size: 10px; opacity: 1; font-family: Impact; fill: rgb(82, 84, 163);" transform="translate(-376,4)rotate(1.4999999762315532)skewX(1.98784666018391e-16)scale(1.0000000079134816,1.0000000079134816)" text-anchor="middle">piyama</text><text style="font-size: 10px; opacity: 1; font-family: Impact; fill: rgb(107, 110, 207);" transform="translate(-447,6)rotate(1.4999999762315532)skewX(1.9878466601839103e-16)scale(1.0000000079134816,1.0000000079134816)" text-anchor="middle">cataclismos</text><text style="font-size: 10px; opacity: 1; font-family: Impact; fill: rgb(156, 158, 222);" transform="translate(380,88)rotate(30.250000265107733)skewX(0)scale(1.0000000124078419,1.0000000124078419)" text-anchor="middle">living</text><text style="font-size: 10px; opacity: 1; font-family: Impact; fill: rgb(99, 121, 57);" transform="translate(-9,-77)rotate(-27.24999916406)skewX(-3.1805546222859126e-15)scale(1.0000000186060645,1.0000000186060645)" text-anchor="middle">room</text><text style="font-size: 10px; opacity: 1; font-family: Impact; fill: rgb(140, 162, 82);" transform="translate(-119,-85)rotate(1.4999999762315532)skewX(1.98784666018391e-16)scale(1.0000000079134816,1.0000000079134816)" text-anchor="middle">solo</text><text style="font-size: 10px; opacity: 1; font-family: Impact; fill: rgb(181, 207, 107);" transform="translate(-70,259)rotate(30.250000265107733)skewX(0)scale(1.0000000124078419,1.0000000124078419)" text-anchor="middle">interrogarse</text><text style="font-size: 10px; opacity: 1; font-family: Impact; fill: rgb(206, 219, 156);" transform="translate(-259,125)rotate(-55.999999544926965)skewX(0)scale(0.9999999746668561,0.9999999746668561)" text-anchor="middle">vicia</text><text style="font-size: 10px; opacity: 1; font-family: Impact; fill: rgb(140, 109, 49);" transform="translate(215,253)rotate(-55.999999544926965)scale(0.9999999746668561,0.9999999746668561)" text-anchor="middle">enturbia</text><text style="font-size: 10px; opacity: 1; font-family: Impact; fill: rgb(189, 158, 57);" transform="translate(-188,212)rotate(1.4999999762315497)skewX(1.98784666018391e-16)scale(1.0000000079134816,1.0000000079134816)" text-anchor="middle">elegible</text><text style="font-size: 10px; opacity: 1; font-family: Impact; fill: rgb(231, 186, 82);" transform="translate(-62,-161)rotate(1.4999999762315532)skewX(1.98784666018391e-16)scale(1.0000000079134816,1.0000000079134816)" text-anchor="middle">ésta</text><text style="font-size: 10px; opacity: 1; font-family: Impact; fill: rgb(231, 203, 148);" transform="translate(263,-51)rotate(1.4999999762315497)skewX(1.98784666018391e-16)scale(1.0000000079134816,1.0000000079134816)" text-anchor="middle">está…</text><text style="font-size: 10px; opacity: 1; font-family: Impact; fill: rgb(132, 60, 57);" transform="translate(-7,-201)rotate(30.25000026510773)scale(1.0000000124078419,1.0000000124078419)" text-anchor="middle">Parecería</text><text style="font-size: 10px; opacity: 1; font-family: Impact; fill: rgb(173, 73, 74);" transform="translate(417,31)rotate(-55.999999544926965)scale(0.9999999746668561,0.9999999746668561)" text-anchor="middle">planteo</text><text style="font-size: 10px; opacity: 1; font-family: Impact; fill: rgb(214, 97, 107);" transform="translate(448,-114)rotate(-27.24999916406)skewX(-3.1805546222859126e-15)scale(1.0000000186060645,1.0000000186060645)" text-anchor="middle">empobrece</text><text style="font-size: 10px; opacity: 1; font-family: Impact; fill: rgb(231, 150, 156);" transform="translate(-174,229)rotate(1.4999999762315568)skewX(1.98784666018391e-16)scale(1.0000000079134816,1.0000000079134816)" text-anchor="middle">falsea</text><text style="font-size: 10px; opacity: 1; font-family: Impact; fill: rgb(123, 65, 115);" transform="translate(431,56)rotate(59.00000017511646)scale(1.0000000015001866,1.0000000015001866)" text-anchor="middle">transforma</text><text style="font-size: 10px; opacity: 1; font-family: Impact; fill: rgb(165, 81, 148);" transform="translate(238,-207)rotate(1.4999999762315497)skewX(1.98784666018391e-16)scale(1.0000000079134816,1.0000000079134816)" text-anchor="middle">eones</text><text style="font-size: 10px; opacity: 1; font-family: Impact; fill: rgb(206, 109, 189);" transform="translate(-24,-270)rotate(1.4999999762315532)skewX(1.9878466601839103e-16)scale(1.0000000079134816,1.0000000079134816)" text-anchor="middle">Todo</text><text style="font-size: 10px; opacity: 1; font-family: Impact; fill: rgb(222, 158, 214);" transform="translate(63,227)rotate(-55.999999544926965)scale(0.9999999746668561,0.9999999746668561)" text-anchor="middle">fábula</text><text style="font-size: 10px; opacity: 1; font-family: Impact; fill: rgb(57, 59, 121);" transform="translate(-225,223)rotate(1.4999999762315497)skewX(1.98784666018391e-16)scale(1.0000000079134816,1.0000000079134816)" text-anchor="middle">¿Pero</text><text style="font-size: 10px; opacity: 1; font-family: Impact; fill: rgb(82, 84, 163);" transform="translate(5,-282)rotate(-27.24999916406)skewX(-3.1805546222859126e-15)scale(1.0000000186060645,1.0000000186060645)" text-anchor="middle">sirve</text><text style="font-size: 10px; opacity: 1; font-family: Impact; fill: rgb(107, 110, 207);" transform="translate(-428,-131)rotate(1.4999999762315532)skewX(1.98784666018391e-16)scale(1.0000000079134816,1.0000000079134816)" text-anchor="middle">tranquiliza</text><text style="font-size: 10px; opacity: 1; font-family: Impact; fill: rgb(156, 158, 222);" transform="translate(253,249)rotate(30.250000265107733)scale(1.0000000124078419,1.0000000124078419)" text-anchor="middle">propietario</text><text style="font-size: 10px; opacity: 1; font-family: Impact; fill: rgb(99, 121, 57);" transform="translate(408,-28)rotate(30.250000265107733)scale(1.0000000124078419,1.0000000124078419)" text-anchor="middle">honesto</text><text style="font-size: 10px; opacity: 1; font-family: Impact; fill: rgb(140, 162, 82);" transform="translate(-371,-81)rotate(30.25000026510773)scale(1.0000000124078419,1.0000000124078419)" text-anchor="middle">pintura</text><text style="font-size: 10px; opacity: 1; font-family: Impact; fill: rgb(181, 207, 107);" transform="translate(-173,-265)rotate(30.25000026510773)skewX(0)scale(1.0000000124078419,1.0000000124078419)" text-anchor="middle">escultura</text><text style="font-size: 10px; opacity: 1; font-family: Impact; fill: rgb(206, 219, 156);" transform="translate(-215,241)rotate(-27.24999916406)skewX(-3.1805546222859126e-15)scale(1.0000000186060645,1.0000000186060645)" text-anchor="middle">agricultura</text><text style="font-size: 10px; opacity: 1; font-family: Impact; fill: rgb(140, 109, 49);" transform="translate(433,-182)rotate(59.000000175116455)skewX(0)scale(1.0000000015001866,1.0000000015001866)" text-anchor="middle">piscicultura</text><text style="font-size: 10px; opacity: 1; font-family: Impact; fill: rgb(189, 158, 57);" transform="translate(-218,-262)rotate(59.00000017511647)skewX(0)scale(1.0000000015001866,1.0000000015001866)" text-anchor="middle">valores</text><text style="font-size: 10px; opacity: 1; font-family: Impact; fill: rgb(231, 186, 82);" transform="translate(417,-134)rotate(30.250000265107733)scale(1.0000000124078419,1.0000000124078419)" text-anchor="middle">santidad</text><text style="font-size: 10px; opacity: 1; font-family: Impact; fill: rgb(231, 203, 148);" transform="translate(329,-220)rotate(1.4999999762315532)skewX(1.9878466601839103e-16)scale(1.0000000079134816,1.0000000079134816)" text-anchor="middle">sociedad</text><text style="font-size: 10px; opacity: 1; font-family: Impact; fill: rgb(132, 60, 57);" transform="translate(232,-116)rotate(-55.99999954492697)scale(0.9999999746668561,0.9999999746668561)" text-anchor="middle">amor</text><text style="font-size: 10px; opacity: 1; font-family: Impact; fill: rgb(173, 73, 74);" transform="translate(-276,-119)rotate(30.250000265107733)skewX(0)scale(1.0000000124078419,1.0000000124078419)" text-anchor="middle">pura</text><text style="font-size: 10px; opacity: 1; font-family: Impact; fill: rgb(214, 97, 107);" transform="translate(110,234)rotate(-27.24999916406)skewX(-3.1805546222859126e-15)scale(1.0000000186060645,1.0000000186060645)" text-anchor="middle">belleza</text><text style="font-size: 10px; opacity: 1; font-family: Impact; fill: rgb(231, 150, 156);" transform="translate(135,100)rotate(1.4999999762315497)skewX(1.98784666018391e-16)scale(1.0000000079134816,1.0000000079134816)" text-anchor="middle">sus</text><text style="font-size: 10px; opacity: 1; font-family: Impact; fill: rgb(123, 65, 115);" transform="translate(-50,154)rotate(-55.999999544926965)scale(0.9999999746668561,0.9999999746668561)" text-anchor="middle">libros</text><text style="font-size: 10px; opacity: 1; font-family: Impact; fill: rgb(165, 81, 148);" transform="translate(440,32)rotate(59.00000017511646)scale(1.0000000015001866,1.0000000015001866)" text-anchor="middle">habla</text><text style="font-size: 10px; opacity: 1; font-family: Impact; fill: rgb(206, 109, 189);" transform="translate(-33,-286)rotate(30.250000265107733)scale(1.0000000124078419,1.0000000124078419)" text-anchor="middle">pasó</text><text style="font-size: 10px; opacity: 1; font-family: Impact; fill: rgb(222, 158, 214);" transform="translate(341,16)rotate(30.250000265107733)skewX(0)scale(1.0000000124078419,1.0000000124078419)" text-anchor="middle">años</text><text style="font-size: 10px; opacity: 1; font-family: Impact; fill: rgb(57, 59, 121);" transform="translate(-402,-143)rotate(1.4999999762315568)skewX(1.98784666018391e-16)scale(1.0000000079134816,1.0000000079134816)" text-anchor="middle">sentado</text><text style="font-size: 10px; opacity: 1; font-family: Impact; fill: rgb(82, 84, 163);" transform="translate(-242,-249)rotate(30.250000265107733)skewX(0)scale(1.0000000124078419,1.0000000124078419)" text-anchor="middle">puerta</text><text style="font-size: 10px; opacity: 1; font-family: Impact; fill: rgb(107, 110, 207);" transform="translate(276,-37)rotate(30.25000026510773)skewX(0)scale(1.0000000124078419,1.0000000124078419)" text-anchor="middle">casa</text><text style="font-size: 10px; opacity: 1; font-family: Impact; fill: rgb(156, 158, 222);" transform="translate(-181,246)rotate(1.4999999762315532)skewX(1.9878466601839103e-16)scale(1.0000000079134816,1.0000000079134816)" text-anchor="middle">mirando</text><text style="font-size: 10px; opacity: 1; font-family: Impact; fill: rgb(99, 121, 57);" transform="translate(272,98)rotate(-27.24999916406)skewX(-3.1805546222859126e-15)scale(1.0000000186060645,1.0000000186060645)" text-anchor="middle">suelo</text><text style="font-size: 10px; opacity: 1; font-family: Impact; fill: rgb(140, 162, 82);" transform="translate(-299,-230)rotate(30.250000265107733)skewX(0)scale(1.0000000124078419,1.0000000124078419)" text-anchor="middle">noche</text><text style="font-size: 10px; opacity: 1; font-family: Impact; fill: rgb(181, 207, 107);" transform="translate(-228,-176)rotate(59.000000175116455)skewX(0)scale(1.0000000015001866,1.0000000015001866)" text-anchor="middle">juntaba</text><text style="font-size: 10px; opacity: 1; font-family: Impact; fill: rgb(206, 219, 156);" transform="translate(245,-243)rotate(-55.999999544926965)skewX(0)scale(0.9999999746668561,0.9999999746668561)" text-anchor="middle">ponía</text><text style="font-size: 10px; opacity: 1; font-family: Impact; fill: rgb(140, 109, 49);" transform="translate(-356,-203)rotate(-27.249999164059997)skewX(-3.1805546222859126e-15)scale(1.0000000186060645,1.0000000186060645)" text-anchor="middle">debajo</text><text style="font-size: 10px; opacity: 1; font-family: Impact; fill: rgb(189, 158, 57);" transform="translate(-243,-273)rotate(59.000000175116455)skewX(0)scale(1.0000000015001866,1.0000000015001866)" text-anchor="middle">colchón</text><text style="font-size: 10px; opacity: 1; font-family: Impact; fill: rgb(231, 186, 82);" transform="translate(383,155)rotate(30.250000265107733)scale(1.0000000124078419,1.0000000124078419)" text-anchor="middle">primero</text><text style="font-size: 10px; opacity: 1; font-family: Impact; fill: rgb(231, 203, 148);" transform="translate(66,45)rotate(-55.999999544926965)scale(0.9999999746668561,0.9999999746668561)" text-anchor="middle">risa</text><text style="font-size: 10px; opacity: 1; font-family: Impact; fill: rgb(132, 60, 57);" transform="translate(375,173)rotate(59.00000017511647)scale(1.0000000015001866,1.0000000015001866)" text-anchor="middle">tomada</text><text style="font-size: 10px; opacity: 1; font-family: Impact; fill: rgb(173, 73, 74);" transform="translate(-131,100)rotate(-55.99999954492697)scale(0.9999999746668561,0.9999999746668561)" text-anchor="middle">pelo</text><text style="font-size: 10px; opacity: 1; font-family: Impact; fill: rgb(214, 97, 107);" transform="translate(281,-250)rotate(-55.999999544926965)scale(0.9999999746668561,0.9999999746668561)" text-anchor="middle">irritación</text><text style="font-size: 10px; opacity: 1; font-family: Impact; fill: rgb(231, 150, 156);" transform="translate(-291,-246)rotate(1.4999999762315532)skewX(1.98784666018391e-16)scale(1.0000000079134816,1.0000000079134816)" text-anchor="middle">comunal</text><text style="font-size: 10px; opacity: 1; font-family: Impact; fill: rgb(123, 65, 115);" transform="translate(416,7)rotate(1.4999999762315532)skewX(1.9878466601839103e-16)scale(1.0000000079134816,1.0000000079134816)" text-anchor="middle">junta</text><text style="font-size: 10px; opacity: 1; font-family: Impact; fill: rgb(165, 81, 148);" transform="translate(-324,107)rotate(1.4999999762315532)skewX(1.98784666018391e-16)scale(1.0000000079134816,1.0000000079134816)" text-anchor="middle">signo</text><text style="font-size: 10px; opacity: 1; font-family: Impact; fill: rgb(206, 109, 189);" transform="translate(-262,231)rotate(-27.24999916406)skewX(-3.1805546222859126e-15)scale(1.0000000186060645,1.0000000186060645)" text-anchor="middle">violación</text><text style="font-size: 10px; opacity: 1; font-family: Impact; fill: rgb(222, 158, 214);" transform="translate(445,90)rotate(-27.24999916406)skewX(-3.1805546222859126e-15)scale(1.0000000186060645,1.0000000186060645)" text-anchor="middle">deberes</text><text style="font-size: 10px; opacity: 1; font-family: Impact; fill: rgb(57, 59, 121);" transform="translate(-43,255)rotate(30.250000265107733)scale(1.0000000124078419,1.0000000124078419)" text-anchor="middle">cívicos</text><text style="font-size: 10px; opacity: 1; font-family: Impact; fill: rgb(82, 84, 163);" transform="translate(22,277)rotate(1.4999999762315532)skewX(1.98784666018391e-16)scale(1.0000000079134816,1.0000000079134816)" text-anchor="middle">finalmente</text><text style="font-size: 10px; opacity: 1; font-family: Impact; fill: rgb(107, 110, 207);" transform="translate(382,-209)rotate(1.4999999762315532)skewX(1.9878466601839103e-16)scale(1.0000000079134816,1.0000000079134816)" text-anchor="middle">encogimiento</text><text style="font-size: 10px; opacity: 1; font-family: Impact; fill: rgb(156, 158, 222);" transform="translate(303,-143)rotate(-27.24999916406)skewX(-3.1805546222859126e-15)scale(1.0000000186060645,1.0000000186060645)" text-anchor="middle">hombros</text><text style="font-size: 10px; opacity: 1; font-family: Impact; fill: rgb(99, 121, 57);" transform="translate(-99,239)rotate(-55.999999544926965)skewX(0)scale(0.9999999746668561,0.9999999746668561)" text-anchor="middle">podía</text><text style="font-size: 10px; opacity: 1; font-family: Impact; fill: rgb(140, 162, 82);" transform="translate(-439,-105)rotate(-27.24999916406)skewX(-3.1805546222859126e-15)scale(1.0000000186060645,1.0000000186060645)" text-anchor="middle">pasar</text><text style="font-size: 10px; opacity: 1; font-family: Impact; fill: rgb(181, 207, 107);" transform="translate(292,-72)rotate(1.4999999762315532)skewX(1.9878466601839103e-16)scale(1.0000000079134816,1.0000000079134816)" text-anchor="middle">calle</text><text style="font-size: 10px; opacity: 1; font-family: Impact; fill: rgb(206, 219, 156);" transform="translate(-325,-227)rotate(-55.999999544926965)scale(0.9999999746668561,0.9999999746668561)" text-anchor="middle">mirar</text><text style="font-size: 10px; opacity: 1; font-family: Impact; fill: rgb(140, 109, 49);" transform="translate(324,120)rotate(30.250000265107733)scale(1.0000000124078419,1.0000000124078419)" text-anchor="middle">reojo</text><text style="font-size: 10px; opacity: 1; font-family: Impact; fill: rgb(189, 158, 57);" transform="translate(-154,-287)rotate(-27.24999916406)skewX(-3.1805546222859126e-15)scale(1.0000000186060645,1.0000000186060645)" text-anchor="middle">sentir</text><text style="font-size: 10px; opacity: 1; font-family: Impact; fill: rgb(231, 186, 82);" transform="translate(-213,-9)rotate(30.25000026510773)skewX(0)scale(1.0000000124078419,1.0000000124078419)" text-anchor="middle">tipo</text><text style="font-size: 10px; opacity: 1; font-family: Impact; fill: rgb(231, 203, 148);" transform="translate(66,272)rotate(-55.99999954492697)scale(0.9999999746668561,0.9999999746668561)" text-anchor="middle">murió</text><text style="font-size: 10px; opacity: 1; font-family: Impact; fill: rgb(132, 60, 57);" transform="translate(-436,31)rotate(-55.999999544926965)skewX(0)scale(0.9999999746668561,0.9999999746668561)" text-anchor="middle">síncope</text><text style="font-size: 10px; opacity: 1; font-family: Impact; fill: rgb(173, 73, 74);" transform="translate(-150,272)rotate(-27.249999164060007)skewX(-3.1805546222859126e-15)scale(1.0000000186060645,1.0000000186060645)" text-anchor="middle">desapareció</text><text style="font-size: 10px; opacity: 1; font-family: Impact; fill: rgb(214, 97, 107);" transform="translate(398,-151)rotate(-55.999999544926965)scale(0.9999999746668561,0.9999999746668561)" text-anchor="middle">apenas</text><text style="font-size: 10px; opacity: 1; font-family: Impact; fill: rgb(231, 150, 156);" transform="translate(359,208)rotate(-27.24999916406)skewX(-3.1805546222859126e-15)scale(1.0000000186060645,1.0000000186060645)" text-anchor="middle">acudieron</text><text style="font-size: 10px; opacity: 1; font-family: Impact; fill: rgb(123, 65, 115);" transform="translate(222,-262)rotate(-27.24999916406)skewX(-3.1805546222859126e-15)scale(1.0000000186060645,1.0000000186060645)" text-anchor="middle">ellos</text><text style="font-size: 10px; opacity: 1; font-family: Impact; fill: rgb(165, 81, 148);" transform="translate(169,272)rotate(59.00000017511646)scale(1.0000000015001866,1.0000000015001866)" text-anchor="middle">guarda</text><text style="font-size: 10px; opacity: 1; font-family: Impact; fill: rgb(206, 109, 189);" transform="translate(-84,-286)rotate(1.4999999762315532)skewX(1.9878466601839103e-16)scale(1.0000000079134816,1.0000000079134816)" text-anchor="middle">secreto</text><text style="font-size: 10px; opacity: 1; font-family: Impact; fill: rgb(222, 158, 214);" transform="translate(425,-34)rotate(59.00000017511647)scale(1.0000000015001866,1.0000000015001866)" text-anchor="middle">vuelve</text><text style="font-size: 10px; opacity: 1; font-family: Impact; fill: rgb(57, 59, 121);" transform="translate(182,-99)rotate(1.4999999762315497)skewX(1.98784666018391e-16)scale(1.0000000079134816,1.0000000079134816)" text-anchor="middle">va</text><text style="font-size: 10px; opacity: 1; font-family: Impact; fill: rgb(82, 84, 163);" transform="translate(-399,-180)rotate(30.250000265107733)scale(1.0000000124078419,1.0000000124078419)" text-anchor="middle">fábrica</text><text style="font-size: 10px; opacity: 1; font-family: Impact; fill: rgb(107, 110, 207);" transform="translate(-443,98)rotate(30.25000026510773)skewX(0)scale(1.0000000124078419,1.0000000124078419)" text-anchor="middle">sintiendo</text><text style="font-size: 10px; opacity: 1; font-family: Impact; fill: rgb(156, 158, 222);" transform="translate(-424,-168)rotate(30.250000265107733)scale(1.0000000124078419,1.0000000124078419)" text-anchor="middle">comprende</text><text style="font-size: 10px; opacity: 1; font-family: Impact; fill: rgb(99, 121, 57);" transform="translate(-303,214)rotate(59.00000017511647)scale(1.0000000015001866,1.0000000015001866)" text-anchor="middle">oscura</text><text style="font-size: 10px; opacity: 1; font-family: Impact; fill: rgb(140, 162, 82);" transform="translate(-368,-220)rotate(-55.999999544926965)skewX(0)scale(0.9999999746668561,0.9999999746668561)" text-anchor="middle">reprobación</text><text style="font-size: 10px; opacity: 1; font-family: Impact; fill: rgb(181, 207, 107);" transform="translate(6,183)rotate(30.250000265107733)scale(1.0000000124078419,1.0000000124078419)" text-anchor="middle">Sólo</text><text style="font-size: 10px; opacity: 1; font-family: Impact; fill: rgb(206, 219, 156);" transform="translate(-268,191)rotate(-27.249999164059997)skewX(-3.1805546222859126e-15)scale(1.0000000186060645,1.0000000186060645)" text-anchor="middle">calma</text><text style="font-size: 10px; opacity: 1; font-family: Impact; fill: rgb(140, 109, 49);" transform="translate(-284,-266)rotate(30.25000026510773)scale(1.0000000124078419,1.0000000124078419)" text-anchor="middle">cuando</text><text style="font-size: 10px; opacity: 1; font-family: Impact; fill: rgb(189, 158, 57);" transform="translate(443,11)rotate(-27.24999916406)skewX(-3.1805546222859126e-15)scale(1.0000000186060645,1.0000000186060645)" text-anchor="middle">queda</text><text style="font-size: 10px; opacity: 1; font-family: Impact; fill: rgb(231, 186, 82);" transform="translate(439,137)rotate(59.00000017511646)scale(1.0000000015001866,1.0000000015001866)" text-anchor="middle">mirándolo</text><text style="font-size: 10px; opacity: 1; font-family: Impact; fill: rgb(231, 203, 148);" transform="translate(-156,-160)rotate(-55.999999544926965)scale(0.9999999746668561,0.9999999746668561)" text-anchor="middle">oye</text><text style="font-size: 10px; opacity: 1; font-family: Impact; fill: rgb(132, 60, 57);" transform="translate(-426,-199)rotate(1.4999999762315568)skewX(1.98784666018391e-16)scale(1.0000000079134816,1.0000000079134816)" text-anchor="middle">pasos</text><text style="font-size: 10px; opacity: 1; font-family: Impact; fill: rgb(173, 73, 74);" transform="translate(412,158)rotate(30.250000265107733)scale(1.0000000124078419,1.0000000124078419)" text-anchor="middle">presuroso</text><text style="font-size: 10px; opacity: 1; font-family: Impact; fill: rgb(214, 97, 107);" transform="translate(-372,119)rotate(30.250000265107733)scale(1.0000000124078419,1.0000000124078419)" text-anchor="middle">pensaba</text><text style="font-size: 10px; opacity: 1; font-family: Impact; fill: rgb(231, 150, 156);" transform="translate(-419,-116)rotate(30.250000265107733)scale(1.0000000124078419,1.0000000124078419)" text-anchor="middle">debía</text><text style="font-size: 10px; opacity: 1; font-family: Impact; fill: rgb(123, 65, 115);" transform="translate(450,25)rotate(59.00000017511647)scale(1.0000000015001866,1.0000000015001866)" text-anchor="middle">dios</text><text style="font-size: 10px; opacity: 1; font-family: Impact; fill: rgb(165, 81, 148);" transform="translate(-317,-259)rotate(-27.249999164060007)skewX(-3.1805546222859126e-15)scale(1.0000000186060645,1.0000000186060645)" text-anchor="middle">Solución</text><text style="font-size: 10px; opacity: 1; font-family: Impact; fill: rgb(206, 109, 189);" transform="translate(349,-244)rotate(59.00000017511646)scale(1.0000000015001866,1.0000000015001866)" text-anchor="middle">demasiado</text><text style="font-size: 10px; opacity: 1; font-family: Impact; fill: rgb(222, 158, 214);" transform="translate(156,-229)rotate(30.25000026510773)skewX(0)scale(1.0000000124078419,1.0000000124078419)" text-anchor="middle">fácil</text><text style="font-size: 10px; opacity: 1; font-family: Impact; fill: rgb(57, 59, 121);" transform="translate(-190,-87)rotate(-55.999999544926965)skewX(0)scale(0.9999999746668561,0.9999999746668561)" text-anchor="middle">error</text><text style="font-size: 10px; opacity: 1; font-family: Impact; fill: rgb(82, 84, 163);" transform="translate(-112,273)rotate(-55.999999544926965)scale(0.9999999746668561,0.9999999746668561)" text-anchor="middle">estuviera</text><text style="font-size: 10px; opacity: 1; font-family: Impact; fill: rgb(107, 110, 207);" transform="translate(-336,-273)rotate(-55.999999544926965)scale(0.9999999746668561,0.9999999746668561)" text-anchor="middle">aceptar</text><text style="font-size: 10px; opacity: 1; font-family: Impact; fill: rgb(156, 158, 222);" transform="translate(-262,43)rotate(59.00000017511646)scale(1.0000000015001866,1.0000000015001866)" text-anchor="middle">ese</text><text style="font-size: 10px; opacity: 1; font-family: Impact; fill: rgb(99, 121, 57);" transform="translate(-443,-25)rotate(-55.999999544926965)scale(0.9999999746668561,0.9999999746668561)" text-anchor="middle">objeto</text><text style="font-size: 10px; opacity: 1; font-family: Impact; fill: rgb(140, 162, 82);" transform="translate(31,-285)rotate(1.4999999762315532)skewX(1.98784666018391e-16)scale(1.0000000079134816,1.0000000079134816)" text-anchor="middle">tenía</text><text style="font-size: 10px; opacity: 1; font-family: Impact; fill: rgb(181, 207, 107);" transform="translate(420,135)rotate(-55.999999544926965)skewX(0)scale(0.9999999746668561,0.9999999746668561)" text-anchor="middle">forma</text><text style="font-size: 10px; opacity: 1; font-family: Impact; fill: rgb(206, 219, 156);" transform="translate(-403,-223)rotate(30.250000265107733)scale(1.0000000124078419,1.0000000124078419)" text-anchor="middle">Picasso</text><text style="font-size: 10px; opacity: 1; font-family: Impact; fill: rgb(140, 109, 49);" transform="translate(83,-213)rotate(-27.249999164059997)skewX(-3.1805546222859126e-15)scale(1.0000000186060645,1.0000000186060645)" text-anchor="middle">toma</text><text style="font-size: 10px; opacity: 1; font-family: Impact; fill: rgb(189, 158, 57);" transform="translate(-363,-254)rotate(-55.999999544926965)skewX(0)scale(0.9999999746668561,0.9999999746668561)" text-anchor="middle">convierte</text><text style="font-size: 10px; opacity: 1; font-family: Impact; fill: rgb(231, 186, 82);" transform="translate(226,-278)rotate(30.250000265107733)scale(1.0000000124078419,1.0000000124078419)" text-anchor="middle">mentón</text><text style="font-size: 10px; opacity: 1; font-family: Impact; fill: rgb(231, 203, 148);" transform="translate(-378,177)rotate(30.25000026510773)scale(1.0000000124078419,1.0000000124078419)" text-anchor="middle">cinocéfalo</text><text style="font-size: 10px; opacity: 1; font-family: Impact; fill: rgb(132, 60, 57);" transform="translate(82,280)rotate(30.250000265107733)skewX(0)scale(1.0000000124078419,1.0000000124078419)" text-anchor="middle">idiota</text><text style="font-size: 10px; opacity: 1; font-family: Impact; fill: rgb(173, 73, 74);" transform="translate(-411,169)rotate(-55.999999544926965)scale(0.9999999746668561,0.9999999746668561)" text-anchor="middle">también</text><text style="font-size: 10px; opacity: 1; font-family: Impact; fill: rgb(214, 97, 107);" transform="translate(-77,-247)rotate(59.00000017511647)skewX(0)scale(1.0000000015001866,1.0000000015001866)" text-anchor="middle">pudo</text><text style="font-size: 10px; opacity: 1; font-family: Impact; fill: rgb(231, 150, 156);" transform="translate(448,-77)rotate(59.00000017511647)scale(1.0000000015001866,1.0000000015001866)" text-anchor="middle">inventor</text><text style="font-size: 10px; opacity: 1; font-family: Impact; fill: rgb(123, 65, 115);" transform="translate(-396,-256)rotate(59.00000017511646)scale(1.0000000015001866,1.0000000015001866)" text-anchor="middle">estrella…</text><text style="font-size: 10px; opacity: 1; font-family: Impact; fill: rgb(165, 81, 148);" transform="translate(-337,-96)rotate(1.4999999762315532)skewX(1.98784666018391e-16)scale(1.0000000079134816,1.0000000079134816)" text-anchor="middle">¿Por</text><text style="font-size: 10px; opacity: 1; font-family: Impact; fill: rgb(206, 109, 189);" transform="translate(-443,156)rotate(-27.249999164060007)skewX(-3.1805546222859126e-15)scale(1.0000000186060645,1.0000000186060645)" text-anchor="middle">entregarse</text><text style="font-size: 10px; opacity: 1; font-family: Impact; fill: rgb(222, 158, 214);" transform="translate(-325,212)rotate(1.4999999762315532)skewX(1.98784666018391e-16)scale(1.0000000079134816,1.0000000079134816)" text-anchor="middle">elegir</text><text style="font-size: 10px; opacity: 1; font-family: Impact; fill: rgb(57, 59, 121);" transform="translate(393,-220)rotate(1.4999999762315532)skewX(1.98784666018391e-16)scale(1.0000000079134816,1.0000000079134816)" text-anchor="middle">París</text><text style="font-size: 10px; opacity: 1; font-family: Impact; fill: rgb(82, 84, 163);" transform="translate(434,159)rotate(30.25000026510773)scale(1.0000000124078419,1.0000000124078419)" text-anchor="middle">destruye</text><text style="font-size: 10px; opacity: 1; font-family: Impact; fill: rgb(107, 110, 207);" transform="translate(-246,242)rotate(-27.24999916406)skewX(-3.1805546222859126e-15)scale(1.0000000186060645,1.0000000186060645)" text-anchor="middle">despacio</text><text style="font-size: 10px; opacity: 1; font-family: Impact; fill: rgb(156, 158, 222);" transform="translate(415,203)rotate(59.00000017511646)scale(1.0000000015001866,1.0000000015001866)" text-anchor="middle">deliciosamente</text><text style="font-size: 10px; opacity: 1; font-family: Impact; fill: rgb(99, 121, 57);" transform="translate(-47,285)rotate(1.4999999762315532)skewX(1.9878466601839103e-16)scale(1.0000000079134816,1.0000000079134816)" text-anchor="middle">triturándonos</text><text style="font-size: 10px; opacity: 1; font-family: Impact; fill: rgb(140, 162, 82);" transform="translate(443,114)rotate(30.250000265107733)skewX(0)scale(1.0000000124078419,1.0000000124078419)" text-anchor="middle">flores</text><text style="font-size: 10px; opacity: 1; font-family: Impact; fill: rgb(181, 207, 107);" transform="translate(-338,-236)rotate(-27.24999916406)skewX(-3.1805546222859126e-15)scale(1.0000000186060645,1.0000000186060645)" text-anchor="middle">viejas</text><text style="font-size: 10px; opacity: 1; font-family: Impact; fill: rgb(206, 219, 156);" transform="translate(439,183)rotate(1.4999999762315532)skewX(1.98784666018391e-16)scale(1.0000000079134816,1.0000000079134816)" text-anchor="middle">manteles</text><text style="font-size: 10px; opacity: 1; font-family: Impact; fill: rgb(140, 109, 49);" transform="translate(345,-202)rotate(30.250000265107733)scale(1.0000000124078419,1.0000000124078419)" text-anchor="middle">papel</text><text style="font-size: 10px; opacity: 1; font-family: Impact; fill: rgb(189, 158, 57);" transform="translate(-422,-237)rotate(-55.999999544926965)skewX(0)scale(0.9999999746668561,0.9999999746668561)" text-anchor="middle">manchas</text><text style="font-size: 10px; opacity: 1; font-family: Impact; fill: rgb(231, 186, 82);" transform="translate(-340,68)rotate(-55.999999544926965)scale(0.9999999746668561,0.9999999746668561)" text-anchor="middle">arde</text><text style="font-size: 10px; opacity: 1; font-family: Impact; fill: rgb(231, 203, 148);" transform="translate(391,-258)rotate(-55.99999954492697)scale(0.9999999746668561,0.9999999746668561)" text-anchor="middle">inventado</text><text style="font-size: 10px; opacity: 1; font-family: Impact; fill: rgb(132, 60, 57);" transform="translate(249,269)rotate(30.250000265107733)scale(1.0000000124078419,1.0000000124078419)" text-anchor="middle">incandescente</text><text style="font-size: 10px; opacity: 1; font-family: Impact; fill: rgb(173, 73, 74);" transform="translate(133,269)rotate(-55.99999954492697)scale(0.9999999746668561,0.9999999746668561)" text-anchor="middle">artilugio</text><text style="font-size: 10px; opacity: 1; font-family: Impact; fill: rgb(214, 97, 107);" transform="translate(-230,-120)rotate(30.25000026510773)scale(1.0000000124078419,1.0000000124078419)" text-anchor="middle">raza</text><text style="font-size: 10px; opacity: 1; font-family: Impact; fill: rgb(231, 150, 156);" transform="translate(328,229)rotate(1.4999999762315532)skewX(1.9878466601839103e-16)scale(1.0000000079134816,1.0000000079134816)" text-anchor="middle">ciudad</text><text style="font-size: 10px; opacity: 1; font-family: Impact; fill: rgb(123, 65, 115);" transform="translate(229,281)rotate(1.4999999762315532)skewX(1.98784666018391e-16)scale(1.0000000079134816,1.0000000079134816)" text-anchor="middle">horrible</text><text style="font-size: 10px; opacity: 1; font-family: Impact; fill: rgb(165, 81, 148);" transform="translate(389,205)rotate(-27.24999916406)skewX(-3.1805546222859126e-15)scale(1.0000000186060645,1.0000000186060645)" text-anchor="middle">aguja</text><text style="font-size: 10px; opacity: 1; font-family: Impact; fill: rgb(206, 109, 189);" transform="translate(-189,260)rotate(1.4999999762315532)skewX(1.98784666018391e-16)scale(1.0000000079134816,1.0000000079134816)" text-anchor="middle">nocturno</text><text style="font-size: 10px; opacity: 1; font-family: Impact; fill: rgb(222, 158, 214);" transform="translate(-440,75)rotate(59.00000017511646)scale(1.0000000015001866,1.0000000015001866)" text-anchor="middle">donde</text><text style="font-size: 10px; opacity: 1; font-family: Impact; fill: rgb(57, 59, 121);" transform="translate(193,-163)rotate(-55.999999544926965)skewX(0)scale(0.9999999746668561,0.9999999746668561)" text-anchor="middle">hilo</text><text style="font-size: 10px; opacity: 1; font-family: Impact; fill: rgb(82, 84, 163);" transform="translate(-147,251)rotate(-27.24999916406)skewX(-3.1805546222859126e-15)scale(1.0000000186060645,1.0000000186060645)" text-anchor="middle">Sena</text><text style="font-size: 10px; opacity: 1; font-family: Impact; fill: rgb(107, 110, 207);" transform="translate(-301,-281)rotate(-27.24999916406)skewX(-3.1805546222859126e-15)scale(1.0000000186060645,1.0000000186060645)" text-anchor="middle">máquina</text><text style="font-size: 10px; opacity: 1; font-family: Impact; fill: rgb(156, 158, 222);" transform="translate(-440,-150)rotate(-27.24999916406)skewX(-3.1805546222859126e-15)scale(1.0000000186060645,1.0000000186060645)" text-anchor="middle">torturas</text><text style="font-size: 10px; opacity: 1; font-family: Impact; fill: rgb(99, 121, 57);" transform="translate(184,274)rotate(59.00000017511646)scale(1.0000000015001866,1.0000000015001866)" text-anchor="middle">puntillas</text><text style="font-size: 10px; opacity: 1; font-family: Impact; fill: rgb(140, 162, 82);" transform="translate(302,247)rotate(30.250000265107733)scale(1.0000000124078419,1.0000000124078419)" text-anchor="middle">agonía</text><text style="font-size: 10px; opacity: 1; font-family: Impact; fill: rgb(181, 207, 107);" transform="translate(-301,235)rotate(30.25000026510773)scale(1.0000000124078419,1.0000000124078419)" text-anchor="middle">jaula</text><text style="font-size: 10px; opacity: 1; font-family: Impact; fill: rgb(206, 219, 156);" transform="translate(260,-275)rotate(30.250000265107733)skewX(0)scale(1.0000000124078419,1.0000000124078419)" text-anchor="middle">atestada</text><text style="font-size: 10px; opacity: 1; font-family: Impact; fill: rgb(140, 109, 49);" transform="translate(428,-250)rotate(-55.999999544926965)skewX(0)scale(0.9999999746668561,0.9999999746668561)" text-anchor="middle">golondrinas</text><text style="font-size: 10px; opacity: 1; font-family: Impact; fill: rgb(189, 158, 57);" transform="translate(371,232)rotate(-27.24999916406)skewX(-3.1805546222859126e-15)scale(1.0000000186060645,1.0000000186060645)" text-anchor="middle">enfurecidas</text><text style="font-size: 10px; opacity: 1; font-family: Impact; fill: rgb(231, 186, 82);" transform="translate(-306,-154)rotate(-55.999999544926965)skewX(0)scale(0.9999999746668561,0.9999999746668561)" text-anchor="middle">obra</text><text style="font-size: 10px; opacity: 1; font-family: Impact; fill: rgb(231, 203, 148);" transform="translate(-372,200)rotate(1.4999999762315532)skewX(1.9878466601839103e-16)scale(1.0000000079134816,1.0000000079134816)" text-anchor="middle">fabuloso</text><text style="font-size: 10px; opacity: 1; font-family: Impact; fill: rgb(132, 60, 57);" transform="translate(428,-216)rotate(1.4999999762315497)skewX(1.98784666018391e-16)scale(1.0000000079134816,1.0000000079134816)" text-anchor="middle">honor</text><text style="font-size: 10px; opacity: 1; font-family: Impact; fill: rgb(173, 73, 74);" transform="translate(-407,-211)rotate(30.25000026510773)skewX(0)scale(1.0000000124078419,1.0000000124078419)" text-anchor="middle">mortal</text><text style="font-size: 10px; opacity: 1; font-family: Impact; fill: rgb(214, 97, 107);" transform="translate(308,-206)rotate(-27.249999164059997)skewX(-3.1805546222859126e-15)scale(1.0000000186060645,1.0000000186060645)" text-anchor="middle">alto</text><text style="font-size: 10px; opacity: 1; font-family: Impact; fill: rgb(231, 150, 156);" transform="translate(444,200)rotate(-27.249999164060007)skewX(-3.1805546222859126e-15)scale(1.0000000186060645,1.0000000186060645)" text-anchor="middle">desafío</text><text style="font-size: 10px; opacity: 1; font-family: Impact; fill: rgb(123, 65, 115);" transform="translate(448,-140)rotate(-27.24999916406)skewX(-3.1805546222859126e-15)scale(1.0000000186060645,1.0000000186060645)" text-anchor="middle">fénix</text><text style="font-size: 10px; opacity: 1; font-family: Impact; fill: rgb(165, 81, 148);" transform="translate(319,268)rotate(-27.24999916406)skewX(-3.1805546222859126e-15)scale(1.0000000186060645,1.0000000186060645)" text-anchor="middle">perfectamente</text><text style="font-size: 10px; opacity: 1; font-family: Impact; fill: rgb(206, 109, 189);" transform="translate(379,252)rotate(1.4999999762315532)skewX(1.98784666018391e-16)scale(1.0000000079134816,1.0000000079134816)" text-anchor="middle">elegimos</text><text style="font-size: 10px; opacity: 1; font-family: Impact; fill: rgb(222, 158, 214);" transform="translate(-401,204)rotate(30.250000265107733)scale(1.0000000124078419,1.0000000124078419)" text-anchor="middle">inclinamos</text><text style="font-size: 10px; opacity: 1; font-family: Impact; fill: rgb(57, 59, 121);" transform="translate(-341,231)rotate(30.250000265107733)scale(1.0000000124078419,1.0000000124078419)" text-anchor="middle">entramos</text><text style="font-size: 10px; opacity: 1; font-family: Impact; fill: rgb(82, 84, 163);" transform="translate(-414,-263)rotate(59.00000017511646)scale(1.0000000015001866,1.0000000015001866)" text-anchor="middle">volvemos</text><text style="font-size: 10px; opacity: 1; font-family: Impact; fill: rgb(107, 110, 207);" transform="translate(-294,266)rotate(-55.999999544926965)skewX(0)scale(0.9999999746668561,0.9999999746668561)" text-anchor="middle">inventarlo</text><text style="font-size: 10px; opacity: 1; font-family: Impact; fill: rgb(156, 158, 222);" transform="translate(420,236)rotate(59.00000017511646)scale(1.0000000015001866,1.0000000015001866)" text-anchor="middle">mancha</text><text style="font-size: 10px; opacity: 1; font-family: Impact; fill: rgb(99, 121, 57);" transform="translate(-213,271)rotate(30.25000026510773)scale(1.0000000124078419,1.0000000124078419)" text-anchor="middle">mantel</text><text style="font-size: 10px; opacity: 1; font-family: Impact; fill: rgb(140, 162, 82);" transform="translate(91,-287)rotate(-27.249999164060007)skewX(-3.1805546222859126e-15)scale(1.0000000186060645,1.0000000186060645)" text-anchor="middle">beso</text><text style="font-size: 10px; opacity: 1; font-family: Impact; fill: rgb(181, 207, 107);" transform="translate(-398,181)rotate(30.250000265107733)scale(1.0000000124078419,1.0000000124078419)" text-anchor="middle">moho</text><text style="font-size: 10px; opacity: 1; font-family: Impact; fill: rgb(206, 219, 156);" transform="translate(296,-283)rotate(1.4999999762315532)skewX(1.98784666018391e-16)scale(1.0000000079134816,1.0000000079134816)" text-anchor="middle">madrugadas</text><text style="font-size: 10px; opacity: 1; font-family: Impact; fill: rgb(140, 109, 49);" transform="translate(-199,-282)rotate(-55.999999544926965)scale(0.9999999746668561,0.9999999746668561)" text-anchor="middle">Cour</text><text style="font-size: 10px; opacity: 1; font-family: Impact; fill: rgb(189, 158, 57);" transform="translate(423,-165)rotate(1.4999999762315532)skewX(1.9878466601839103e-16)scale(1.0000000079134816,1.0000000079134816)" text-anchor="middle">Rohan</text><text style="font-size: 10px; opacity: 1; font-family: Impact; fill: rgb(231, 186, 82);" transform="translate(-258,270)rotate(30.250000265107733)skewX(0)scale(1.0000000124078419,1.0000000124078419)" text-anchor="middle">inventamos</text><text style="font-size: 10px; opacity: 1; font-family: Impact; fill: rgb(231, 203, 148);" transform="translate(-447,137)rotate(-55.999999544926965)scale(0.9999999746668561,0.9999999746668561)" text-anchor="middle">nuestro</text><text style="font-size: 10px; opacity: 1; font-family: Impact; fill: rgb(132, 60, 57);" transform="translate(160,-291)rotate(1.4999999762315568)skewX(1.98784666018391e-16)scale(1.0000000079134816,1.0000000079134816)" text-anchor="middle">incendio</text><text style="font-size: 10px; opacity: 1; font-family: Impact; fill: rgb(173, 73, 74);" transform="translate(-446,111)rotate(30.250000265107733)scale(1.0000000124078419,1.0000000124078419)" text-anchor="middle">afuera</text><text style="font-size: 10px; opacity: 1; font-family: Impact; fill: rgb(214, 97, 107);" transform="translate(123,161)rotate(1.4999999762315568)skewX(1.98784666018391e-16)scale(1.0000000079134816,1.0000000079134816)" text-anchor="middle">eso</text><text style="font-size: 10px; opacity: 1; font-family: Impact; fill: rgb(231, 150, 156);" transform="translate(464,-37)rotate(59.00000017511646)scale(1.0000000015001866,1.0000000015001866)" text-anchor="middle">sea</text><text style="font-size: 10px; opacity: 1; font-family: Impact; fill: rgb(123, 65, 115);" transform="translate(415,-270)rotate(-55.999999544926965)skewX(0)scale(0.9999999746668561,0.9999999746668561)" text-anchor="middle">envuelvan</text><text style="font-size: 10px; opacity: 1; font-family: Impact; fill: rgb(165, 81, 148);" transform="translate(-91,278)rotate(-27.249999164059997)skewX(-3.1805546222859126e-15)scale(1.0000000186060645,1.0000000186060645)" text-anchor="middle">servilleta</text><text style="font-size: 10px; opacity: 1; font-family: Impact; fill: rgb(206, 109, 189);" transform="translate(-111,146)rotate(59.00000017511646)scale(1.0000000015001866,1.0000000015001866)" text-anchor="middle">pan</text><text style="font-size: 10px; opacity: 1; font-family: Impact; fill: rgb(222, 158, 214);" transform="translate(-17,275)rotate(1.4999999762315568)skewX(1.98784666018391e-16)scale(1.0000000079134816,1.0000000079134816)" text-anchor="middle">esté</text><text style="font-size: 10px; opacity: 1; font-family: Impact; fill: rgb(57, 59, 121);" transform="translate(447,-185)rotate(59.000000175116455)skewX(0)scale(1.0000000015001866,1.0000000015001866)" text-anchor="middle">fragancia</text><text style="font-size: 10px; opacity: 1; font-family: Impact; fill: rgb(82, 84, 163);" transform="translate(-27,125)rotate(-55.999999544926965)scale(0.9999999746668561,0.9999999746668561)" text-anchor="middle">harina</text><text style="font-size: 10px; opacity: 1; font-family: Impact; fill: rgb(107, 110, 207);" transform="translate(-406,219)rotate(30.250000265107733)scale(1.0000000124078419,1.0000000124078419)" text-anchor="middle">esponjándose</text><text style="font-size: 10px; opacity: 1; font-family: Impact; fill: rgb(156, 158, 222);" transform="translate(361,-275)rotate(-27.249999164059997)skewX(-3.1805546222859126e-15)scale(1.0000000186060645,1.0000000186060645)" text-anchor="middle">Manes</text><text style="font-size: 10px; opacity: 1; font-family: Impact; fill: rgb(99, 121, 57);" transform="translate(-374,-277)rotate(1.4999999762315532)skewX(1.98784666018391e-16)scale(1.0000000079134816,1.0000000079134816)" text-anchor="middle">Ormuz</text><text style="font-size: 10px; opacity: 1; font-family: Impact; fill: rgb(140, 162, 82);" transform="translate(-442,-230)rotate(-55.999999544926965)skewX(0)scale(0.9999999746668561,0.9999999746668561)" text-anchor="middle">Arimán</text><text style="font-size: 10px; opacity: 1; font-family: Impact; fill: rgb(181, 207, 107);" transform="translate(329,-270)rotate(-27.249999164059997)skewX(-3.1805546222859126e-15)scale(1.0000000186060645,1.0000000186060645)" text-anchor="middle">bast</text></g></svg>